<svg width="200" height="159" viewBox="0 0 200 159" fill="none" xmlns="http://www.w3.org/2000/svg">
<path d="M27.1255 79.874C25.819 79.874 24.7598 78.8148 24.7598 77.5083C24.7598 76.2017 25.819 75.1426 27.1255 75.1426C28.432 75.1426 29.4912 76.2017 29.4912 77.5083C29.4912 78.8148 28.432 79.874 27.1255 79.874Z" fill="#FF6584"/>
<path d="M26.7549 94.1806L44.4443 114.494L43.8984 114.969L26.2089 94.656L26.7549 94.1806Z" fill="#4E5970"/>
<path d="M26.4819 98.2276C24.3782 98.2276 22.6728 96.5222 22.6728 94.4185C22.6728 92.3148 24.3782 90.6094 26.4819 90.6094C28.5856 90.6094 30.291 92.3148 30.291 94.4185C30.291 96.5222 28.5856 98.2276 26.4819 98.2276Z" fill="#4E5970"/>
<path d="M37.3839 106.938C37.3839 106.938 30.1081 97.7541 39.4141 91.4541L37.3839 106.938Z" fill="#4E5970"/>
<path d="M156.107 123.064C143.004 147.364 115.195 157.795 115.195 157.795C115.195 157.795 108.63 128.828 121.733 104.529C134.835 80.2288 162.644 69.7974 162.644 69.7974C162.644 69.7974 169.209 98.7638 156.107 123.064Z" fill="#7E868E"/>
<path opacity="0.5" d="M147.101 115.069C123.444 129.301 114.334 157.57 114.334 157.57C114.334 157.57 143.577 162.764 167.233 148.532C190.889 134.3 200 106.031 200 106.031C200 106.031 170.757 100.837 147.101 115.069Z" fill="#D1D5D7"/>
<path d="M52.9777 115.27C76.7588 129.293 86.1191 157.48 86.1191 157.48C86.1191 157.48 56.9228 162.933 33.1418 148.91C9.36076 134.888 0.000358582 106.7 0.000358582 106.7C0.000358582 106.7 29.1967 101.248 52.9777 115.27Z" fill="#7E868E"/>
<path opacity="0.5" d="M44.6448 123.964C57.9621 148.147 85.8623 158.332 85.8623 158.332C85.8623 158.332 92.1709 129.308 78.8536 105.125C65.5363 80.9423 37.6361 70.7573 37.6361 70.7573C37.6361 70.7573 31.3275 99.7807 44.6448 123.964Z" fill="#D1D5D7"/>
<path d="M103.85 66.9868L103.399 65.814L111.609 72.761L121.533 78.3548C121.533 78.3548 126.586 58.8669 126.947 58.506C127.308 58.1451 133.804 44.4314 136.691 50.9273C139.578 57.4233 131.097 61.2126 131.097 61.2126C131.097 61.2126 130.826 84.941 122.165 84.7606C113.504 84.5801 102.767 76.7308 102.587 76.009C102.406 75.2873 103.85 66.9868 103.85 66.9868Z" fill="#FFB8B8"/>
<path d="M96.6688 59.6497C88.2614 59.6497 81.446 52.8343 81.446 44.4269C81.446 36.0196 88.2614 29.2041 96.6688 29.2041C105.076 29.2041 111.892 36.0196 111.892 44.4269C111.892 52.8343 105.076 59.6497 96.6688 59.6497Z" fill="#2F2E41"/>
<path d="M97.6995 59.4908C97.6995 59.4908 97.3538 63.5583 98.0756 63.9192C98.7973 64.2801 102.948 64.4605 105.474 67.5281C108 70.5956 102.406 78.3547 102.406 78.3547L81.1138 64.0997L87.7751 61.2126C87.7751 61.2126 93.7298 57.9646 93.5493 54.5361L97.6995 59.4908Z" fill="#FFB8B8"/>
<path d="M70.9594 158.607H95.0007C96.3625 148.65 96.9921 139.525 96.9921 139.525C96.9921 139.525 97.3435 148.704 98.2782 158.607H129.165C124.787 129.282 104.03 97.4829 104.03 97.4829C104.03 97.4829 103.85 93.151 103.308 92.4286C102.766 91.7087 106.376 91.5281 108.001 86.1151C108.992 82.8107 108.101 80.6484 107.254 79.4672C106.964 79.0416 106.606 78.6657 106.195 78.3544C106.195 78.3544 105.834 74.5667 106.195 74.0249C106.242 73.9542 105.885 73.7052 105.226 73.327C104.677 73.0097 103.918 72.6021 103.01 72.1336C97.8097 69.4368 87.7427 64.6657 84.2943 63.0403C83.5377 62.6816 83.0984 62.4766 83.0984 62.4766L76.9631 64.6413C72.0918 66.2642 72.0918 76.5508 72.0918 76.5508L72.3676 76.9706L79.7306 88.1236L84.0014 94.5958C82.9178 95.3157 85.0825 99.8282 85.0825 99.8282C85.0825 99.8282 81.9978 104.26 79.4889 111.025C78.0703 114.79 77.1028 118.71 76.6067 122.703C76.2906 125.291 76.2284 127.903 76.4213 130.503C77.0899 139.196 74.1174 149.761 70.9594 158.607Z" fill="#00ADD2"/>
<path d="M76.877 65.7046C77.077 65.5922 77.2991 65.5248 77.5279 65.5071C77.7566 65.4895 77.9865 65.5219 78.2014 65.6023C78.4163 65.6827 78.6111 65.809 78.7721 65.9724C78.9331 66.1359 79.0565 66.3325 79.1337 66.5486C79.677 68.0426 80.2277 71.1572 80.0315 77.6329C79.6706 89.5422 79.4902 97.6621 79.4902 97.6621V115.707C79.4902 115.707 87.4297 133.029 83.099 133.029C78.7684 133.029 75.7008 119.315 75.7008 119.315C75.7008 119.315 71.7311 98.5644 72.9942 94.9555C72.9942 94.9555 69.4326 70.0242 76.877 65.7046Z" fill="#FFB8B8"/>
<path d="M89.973 54.4039C91.3476 53.1607 92.2049 51.4463 92.375 49.6007C92.545 47.7551 92.0154 45.9129 90.8911 44.4395C91.0399 44.579 91.1854 44.7239 91.3246 44.8779C91.9756 45.5979 92.4784 46.439 92.8043 47.3533C93.1302 48.2676 93.2728 49.2372 93.2241 50.2066C93.1255 52.1645 92.2533 54.003 90.7992 55.3177C89.3451 56.6324 87.4283 57.3157 85.4704 57.2171C84.501 57.1683 83.5507 56.9291 82.6737 56.513C81.7967 56.097 81.0103 55.5122 80.3593 54.7922C80.2201 54.6382 80.0905 54.479 79.9666 54.3169C81.3198 55.5835 83.0995 56.2954 84.9528 56.3115C86.8062 56.3276 88.598 55.6468 89.973 54.4039Z" fill="#2F2E41"/>
<path d="M98.5042 60.017C93.5214 60.017 89.482 55.9777 89.482 50.9948C89.482 46.012 93.5214 41.9727 98.5042 41.9727C103.487 41.9727 107.526 46.012 107.526 50.9948C107.526 55.9777 103.487 60.017 98.5042 60.017Z" fill="#FFB8B8"/>
<path d="M99.5632 48.2687C95.2867 48.2687 91.8198 45.9049 91.8198 42.9891C91.8198 40.0732 95.2867 37.7095 99.5632 37.7095C103.84 37.7095 107.307 40.0732 107.307 42.9891C107.307 45.9049 103.84 48.2687 99.5632 48.2687Z" fill="#2F2E41"/>
<path d="M87.2658 38.8483C83.1836 38.8483 79.8744 35.539 79.8744 31.4569C79.8744 27.3747 83.1836 24.0654 87.2658 24.0654C91.348 24.0654 94.6572 27.3747 94.6572 31.4569C94.6572 35.539 91.348 38.8483 87.2658 38.8483Z" fill="#2F2E41"/>
<path d="M81.9865 36.7359C83.8399 36.7357 85.6256 36.039 86.9896 34.784C88.3535 33.5291 89.1961 31.8075 89.3504 29.9604C89.3672 30.1637 89.3779 30.3688 89.3779 30.5764C89.3779 32.5367 88.5992 34.4168 87.213 35.8029C85.8269 37.1891 83.9468 37.9678 81.9865 37.9678C80.0262 37.9678 78.1461 37.1891 76.76 35.8029C75.3738 34.4168 74.5951 32.5367 74.5951 30.5764C74.5951 30.3688 74.6058 30.1638 74.6226 29.9604C74.7769 31.8075 75.6195 33.5291 76.9834 34.7841C78.3474 36.039 80.1331 36.7357 81.9865 36.7359Z" fill="#2F2E41"/>
<path d="M89.6877 49.4216C89.3484 49.3406 89.2235 48.6463 89.4087 47.8709C89.594 47.0954 90.0191 46.5325 90.3584 46.6135C90.6976 46.6946 90.8225 47.3889 90.6373 48.1643C90.4521 48.9397 90.0269 49.5027 89.6877 49.4216Z" fill="#FFB8B8"/>
<path d="M89.7524 49.2809C89.5531 49.2809 89.3915 49.1193 89.3915 48.92C89.3915 48.7207 89.5531 48.5591 89.7524 48.5591C89.9517 48.5591 90.1133 48.7207 90.1133 48.92C90.1133 49.1193 89.9517 49.2809 89.7524 49.2809Z" fill="#F2F2F2"/>
<path d="M178.544 82.8303C179.123 82.8303 179.69 82.6586 180.171 82.3368C180.653 82.015 181.028 81.5576 181.25 81.0225C181.471 80.4873 181.529 79.8985 181.416 79.3304C181.303 78.7623 181.024 78.2405 180.615 77.8309C180.205 77.4213 179.683 77.1424 179.115 77.0294C178.547 76.9164 177.958 76.9744 177.423 77.1961C176.888 77.4177 176.431 77.7931 176.109 78.2747C175.787 78.7563 175.615 79.3225 175.615 79.9017C175.616 80.6782 175.925 81.4226 176.474 81.9716C177.023 82.5206 177.768 82.8294 178.544 82.8303ZM178.544 77.4612C179.027 77.4612 179.499 77.6044 179.9 77.8725C180.301 78.1407 180.614 78.5219 180.799 78.9678C180.983 79.4137 181.032 79.9044 180.938 80.3778C180.843 80.8513 180.611 81.2861 180.27 81.6274C179.928 81.9687 179.494 82.2012 179.02 82.2953C178.547 82.3895 178.056 82.3412 177.61 82.1564C177.164 81.9717 176.783 81.6589 176.515 81.2576C176.247 80.8563 176.104 80.3844 176.104 79.9017C176.104 79.2547 176.362 78.6344 176.819 78.1769C177.277 77.7193 177.897 77.462 178.544 77.4612Z" fill="#FF6584"/>
<path d="M138.787 53.024L164.902 39.5954C165.758 39.1551 166.404 38.3925 166.699 37.4756C166.993 36.5587 166.911 35.5624 166.47 34.7061L160.318 22.7415C160.229 22.5678 160.105 22.4141 159.954 22.2898C159.803 22.1654 159.629 22.0731 159.441 22.0184L138.858 16.0167C138.035 15.7767 137.151 15.8615 136.389 16.2535C135.627 16.6455 135.044 17.3149 134.76 18.1239L127.997 37.4153C127.828 37.8972 127.759 38.4085 127.794 38.9179C127.829 39.4274 127.968 39.9244 128.202 40.3785L133.897 51.4554C134.115 51.8794 134.415 52.2564 134.779 52.5647C135.142 52.873 135.563 53.1066 136.017 53.2523C136.471 53.398 136.95 53.4528 137.425 53.4136C137.9 53.3744 138.363 53.242 138.787 53.024Z" fill="#E9E9E9"/>
<path d="M147.819 24.6972L143.303 15.218C141.255 10.9208 136.952 10.0247 133.286 11.7709C129.621 13.5171 127.574 17.4389 129.621 21.7362L134.137 31.2154C136.184 35.5126 140.52 36.3936 144.185 34.6474C147.85 32.9012 149.866 28.9944 147.819 24.6972ZM143.696 26.6226C144.599 28.5184 144.067 30.1677 142.424 30.9505C140.781 31.7333 139.133 31.1227 138.23 29.2268L133.759 19.8424C132.856 17.9466 133.404 16.2506 135.048 15.4678C136.691 14.685 138.322 15.3423 139.225 17.2381L143.696 26.6226Z" fill="#00ADD2"/>
<path opacity="0.1" d="M137.748 48.2821L164.117 37.025C164.966 36.5881 164.17 37.2596 163.733 36.41L160.418 22.938L128.117 39.5477L136.283 49.645C136.72 50.4946 136.899 48.719 137.748 48.2821Z" fill="black"/>
<path opacity="0.1" d="M132.432 38.0112L139.221 51.2135L163.243 38.8607L156.454 25.6587L147.428 37.6405L132.432 38.0112Z" fill="black"/>
<path d="M147.813 38.387L159.378 23.0346C159.449 22.9396 159.544 22.8644 159.652 22.8159C159.761 22.7674 159.88 22.7473 159.998 22.7574C160.117 22.7676 160.231 22.8076 160.33 22.8738C160.428 22.94 160.509 23.0302 160.563 23.1359L167.144 35.9343C167.276 36.1904 167.356 36.4698 167.379 36.7568C167.403 37.0437 167.37 37.3325 167.282 37.6067C167.194 37.8808 167.053 38.135 166.867 38.3546C166.681 38.5742 166.453 38.755 166.197 38.8867L137.524 53.6308C137.268 53.7625 136.988 53.8424 136.701 53.8661C136.414 53.8897 136.125 53.8566 135.851 53.7687C135.577 53.6807 135.323 53.5396 135.103 53.3535C134.884 53.1673 134.703 52.9397 134.571 52.6836L128.103 40.1045C128.037 39.9755 128.004 39.8317 128.008 39.6867C128.013 39.5417 128.054 39.4002 128.128 39.2754C128.202 39.1507 128.307 39.0468 128.432 38.9734C128.557 38.9001 128.699 38.8597 128.844 38.8561L147.813 38.387Z" fill="#EEEAEA"/>
</svg>
