<svg width="202" height="190" viewBox="0 0 202 190" fill="none" xmlns="http://www.w3.org/2000/svg">
<g clip-path="url(#clip0)">
<path opacity="0.3" d="M27.7226 142.772C43.0421 142.772 55.4451 130.511 55.4451 115.402C55.4451 100.292 43.0421 88.0317 27.7226 88.0317C12.403 88.0317 0 100.292 0 115.402C0 130.511 12.403 142.772 27.7226 142.772Z" fill="#F2F2F2"/>
<path d="M32.2097 138.61C47.3369 138.61 59.6118 126.35 59.6118 111.24C59.6118 96.1306 47.3369 83.8701 32.2097 83.8701C17.0825 83.8701 4.80762 96.1306 4.80762 111.24C4.80762 126.35 17.0825 138.61 32.2097 138.61Z" fill="#D1D5D7" fill-opacity="0.3"/>
<path d="M74.0334 168.061H38.7793V168.381H74.0334V168.061Z" fill="#3F3D56"/>
<path d="M56.4069 168.701C37.4979 168.701 22.1143 153.4 22.1143 134.609C22.1143 115.818 37.4979 100.517 56.4069 100.517C75.3159 100.517 90.6996 115.818 90.6996 134.609C90.6996 153.4 75.3159 168.701 56.4069 168.701ZM56.4069 100.965C37.7543 100.965 22.5629 116.074 22.5629 134.609C22.5629 153.144 37.7543 168.253 56.4069 168.253C75.0596 168.253 90.2509 153.144 90.2509 134.609C90.2509 116.074 75.0596 100.965 56.4069 100.965Z" fill="#7E868E"/>
<path d="M154.157 60.2777H153.292V36.269C153.292 34.4443 152.939 32.6517 152.234 30.9551C151.529 29.2585 150.504 27.7539 149.222 26.4414C147.94 25.161 146.401 24.1366 144.703 23.4324C143.004 22.7281 141.209 22.376 139.383 22.376H88.2961C86.4693 22.376 84.6425 22.7281 82.9759 23.4324C81.2773 24.1366 79.7389 25.161 78.457 26.4414C77.175 27.7219 76.1494 29.2585 75.4443 30.9551C74.7393 32.6517 74.3867 34.4443 74.3867 36.269V167.901C74.3867 169.725 74.7393 171.518 75.4443 173.215C76.1494 174.911 77.175 176.416 78.457 177.728C79.7389 179.009 81.2773 180.033 82.9759 180.737C84.6745 181.442 86.4693 181.794 88.2961 181.794H139.318C141.145 181.794 142.972 181.442 144.639 180.737C146.337 180.033 147.876 179.009 149.158 177.728C150.439 176.448 151.465 174.911 152.17 173.215C152.875 171.518 153.228 169.725 153.228 167.901V77.3719H154.093V60.2777H154.157Z" fill="#082534"/>
<path d="M140.781 24.6851H133.814C134.15 25.4366 134.251 26.2862 134.184 27.1032C134.083 27.9201 133.814 28.7044 133.343 29.3906C132.871 30.0768 132.232 30.6323 131.491 31.0245C130.751 31.4166 129.909 31.6127 129.068 31.6127H98.5064C97.6649 31.6127 96.8235 31.4166 96.083 31.0245C95.3425 30.6323 94.703 30.0768 94.2318 29.3906C93.7606 28.7044 93.4577 27.9201 93.3904 27.1032C93.2894 26.2862 93.424 25.4366 93.7606 24.6851H87.2646C85.851 24.6851 84.4037 24.9465 83.091 25.502C81.7783 26.0248 80.5666 26.8091 79.5569 27.7894C78.5472 28.7697 77.7394 29.9461 77.2008 31.2205C76.6623 32.4949 76.3594 33.9001 76.3594 35.2725V169.609C76.3594 171.014 76.6286 172.387 77.2008 173.661C77.7394 174.936 78.5472 176.112 79.5569 177.092C80.5666 178.073 81.7783 178.857 83.091 179.38C84.4037 179.903 85.8173 180.197 87.2646 180.197H140.882C142.296 180.197 143.743 179.935 145.056 179.38C146.368 178.857 147.58 178.073 148.59 177.092C149.599 176.112 150.407 174.936 150.946 173.661C151.484 172.387 151.787 170.982 151.787 169.609V35.2725C151.787 33.8674 151.518 32.4949 150.946 31.2205C150.407 29.9461 149.599 28.7697 148.59 27.7894C147.58 26.8091 146.368 26.0248 145.056 25.502C143.608 24.9465 142.195 24.6851 140.781 24.6851ZM141.118 74.8775C141.118 75.5964 140.815 76.3153 140.276 76.8054C139.738 77.3283 139.031 77.6224 138.29 77.6224H89.4187C88.6782 77.6224 87.9714 77.3283 87.4329 76.8054C86.8944 76.2826 86.5914 75.5964 86.5914 74.8775V74.1913C86.5914 73.4724 86.8944 72.7535 87.4329 72.2633C87.9714 71.7405 88.6782 71.4464 89.4187 71.4464H138.29C139.031 71.4464 139.738 71.7405 140.276 72.2633C140.815 72.7861 141.118 73.4724 141.118 74.1913V74.8775ZM141.118 62.7542C141.118 63.4731 140.815 64.192 140.276 64.6821C139.738 65.205 139.031 65.4991 138.29 65.4991H89.4187C88.6782 65.4991 87.9714 65.205 87.4329 64.6821C86.8944 64.1593 86.5914 63.4731 86.5914 62.7542V62.068C86.5914 61.3491 86.8944 60.6302 87.4329 60.14C87.9714 59.6172 88.6782 59.3231 89.4187 59.3231H138.29C139.031 59.3231 139.738 59.6172 140.276 60.14C140.815 60.6628 141.118 61.3491 141.118 62.068V62.7542ZM141.118 50.6309C141.118 51.3498 140.815 52.0687 140.276 52.5588C139.738 53.0817 139.031 53.3758 138.29 53.3758H89.4187C88.6782 53.3758 87.9714 53.0817 87.4329 52.5588C86.8944 52.036 86.5914 51.3498 86.5914 50.6309V49.9447C86.5914 49.2258 86.8944 48.5069 87.4329 48.0167C87.9714 47.4939 88.6782 47.1998 89.4187 47.1998H138.29C139.031 47.1998 139.738 47.4939 140.276 48.0167C140.815 48.5395 141.118 49.2258 141.118 49.9447V50.6309Z" fill="#F2F2F2"/>
<path d="M178.326 25.4227C177.147 25.4227 176.192 24.4672 176.192 23.2885C176.192 22.1098 177.147 21.1542 178.326 21.1542C179.505 21.1542 180.46 22.1098 180.46 23.2885C180.46 24.4672 179.505 25.4227 178.326 25.4227Z" stroke="#FF6584" stroke-width="0.387543"/>
<path d="M183.001 38.766L187.52 34.2524L183.001 29.7388L178.482 34.2524L183.001 38.766Z" fill="#7E868E"/>
<path d="M55.8594 86.8095C57.2741 86.8095 58.4235 87.9563 58.4235 89.3703C58.4235 90.7842 57.2741 91.9311 55.8594 91.9311C54.4447 91.9311 53.2953 90.7842 53.2953 89.3703C53.2953 87.9563 54.4447 86.8095 55.8594 86.8095Z" stroke="#FF6584" stroke-width="0.465603"/>
<path d="M66.662 79.709H59.9316V85.7912H66.662V79.709Z" fill="#7E868E"/>
<path d="M48.6185 14.0853C47.625 8.51525 51.3748 3.16931 56.9834 2.17695C62.5599 1.18459 67.9122 4.92995 68.9057 10.532C69.8992 16.102 66.1495 21.4479 60.5408 22.4403C54.9322 23.4006 49.58 19.6553 48.6185 14.0853ZM68.1686 10.628C67.2391 5.44213 62.3036 1.95287 57.0795 2.88121C51.8555 3.80954 48.3942 8.73933 49.3236 13.9572C50.2531 19.1751 55.1886 22.6324 60.4127 21.704C65.6046 20.7757 69.0659 15.8459 68.1686 10.628Z" fill="#091827" stroke="#082534" stroke-width="0.27128"/>
<path d="M31.4725 69.8176C30.8315 66.1683 33.2672 62.679 36.9208 62.0388C40.5745 61.3985 44.0678 63.8314 44.7088 67.4807C45.3498 71.1301 42.914 74.6193 39.2604 75.2596C35.6068 75.9318 32.1135 73.4669 31.4725 69.8176ZM44.2281 67.5768C43.6191 64.1835 40.4142 61.9107 37.017 62.5189C33.6198 63.1272 31.3443 66.3283 31.9532 69.7215C32.5622 73.1148 35.7671 75.3876 39.1643 74.7794C42.5615 74.2032 44.837 70.97 44.2281 67.5768Z" fill="black" stroke="white" stroke-width="0.155017"/>
<path d="M145.183 76.4119C144.542 75.0674 143.901 73.7549 143.004 72.5705C142.844 72.3464 142.683 72.1864 142.587 71.9303C142.491 71.7702 142.427 71.6101 142.331 71.4501C142.171 71.226 141.946 71.066 141.754 70.9059C140.793 70.3617 139.607 70.2016 138.549 70.4897C138.485 70.4897 138.389 70.5538 138.389 70.5858C138.325 70.6498 138.389 70.7458 138.453 70.8099C139.03 71.5461 139.799 72.1864 140.12 73.1147C140.216 73.3708 140.28 73.6909 140.344 73.979C140.568 74.7153 140.889 75.4836 141.369 76.0598C141.53 76.2838 141.69 76.4439 141.914 76.5399C142.139 76.636 142.395 76.7 142.651 76.764C142.972 76.828 144.318 77.9485 144.671 78.1085" fill="#D09B7D"/>
<path fill-rule="evenodd" clip-rule="evenodd" d="M139.029 154.648V154.776C138.901 156.825 135.6 158.458 131.53 158.458C127.46 158.458 124.158 156.825 124.03 154.776V154.648V151.575H127.107C128.357 151.127 129.895 150.839 131.53 150.839C133.196 150.839 134.735 151.127 135.953 151.575H139.029V154.648Z" fill="#A9C0D0"/>
<path d="M131.53 155.512C135.672 155.512 139.029 153.807 139.029 151.703C139.029 149.599 135.672 147.894 131.53 147.894C127.388 147.894 124.03 149.599 124.03 151.703C124.03 153.807 127.388 155.512 131.53 155.512Z" fill="#7C9AC8"/>
<path d="M131.529 148.374C127.94 148.374 125.023 149.814 125.023 151.575C125.023 153.367 127.972 154.776 131.529 154.776C135.119 154.776 138.035 153.335 138.035 151.575C138.003 149.846 135.119 148.374 131.529 148.374Z" fill="#245C84"/>
<path d="M130.473 152.151L131.37 152.183V152.343C131.37 152.503 131.37 152.599 131.37 152.663C131.37 152.695 131.402 152.759 131.498 152.759C131.53 152.759 131.594 152.759 131.626 152.727C131.658 152.695 131.658 152.599 131.658 152.535C131.658 152.407 131.658 152.279 131.562 152.247C131.53 152.215 131.37 152.087 131.114 151.863C130.921 151.703 130.729 151.607 130.665 151.543C130.569 151.447 130.537 151.383 130.473 151.223C130.441 151.095 130.376 150.935 130.441 150.742C130.441 150.422 130.569 150.166 130.729 150.006C130.889 149.846 131.146 149.718 131.434 149.718V149.398H131.851V149.718C132.107 149.75 132.299 149.846 132.46 150.006C132.62 150.166 132.716 150.454 132.716 150.87V151.031L131.819 150.999V150.774C131.819 150.518 131.819 150.358 131.819 150.326C131.819 150.294 131.787 150.23 131.69 150.23C131.658 150.23 131.562 150.23 131.562 150.262C131.53 150.294 131.53 150.358 131.53 150.422C131.53 150.614 131.53 150.742 131.562 150.87C131.594 150.967 131.69 151.063 131.851 151.159C132.107 151.351 132.299 151.479 132.396 151.575C132.492 151.671 132.556 151.767 132.652 151.959C132.748 152.119 132.748 152.279 132.748 152.439C132.748 152.727 132.652 152.919 132.492 153.047C132.331 153.207 132.075 153.303 131.787 153.303V153.591H131.37V153.303C131.081 153.271 130.889 153.143 130.761 152.983C130.633 152.823 130.569 152.599 130.601 152.375C130.473 152.279 130.473 152.247 130.473 152.151Z" fill="#47E1DD"/>
<path fill-rule="evenodd" clip-rule="evenodd" d="M139.029 149.846V149.975C138.901 152.023 135.6 153.656 131.53 153.656C127.46 153.656 124.158 152.023 124.03 149.975V149.846V146.773H127.107C128.357 146.325 129.895 146.037 131.53 146.037C133.196 146.037 134.735 146.325 135.953 146.773H139.029V149.846Z" fill="#A9C0D0"/>
<path d="M131.53 150.711C135.672 150.711 139.029 149.005 139.029 146.901C139.029 144.797 135.672 143.092 131.53 143.092C127.388 143.092 124.03 144.797 124.03 146.901C124.03 149.005 127.388 150.711 131.53 150.711Z" fill="#7C9AC8"/>
<path d="M131.529 143.572C127.94 143.572 125.023 145.013 125.023 146.773C125.023 148.566 127.972 149.975 131.529 149.975C135.119 149.975 138.035 148.534 138.035 146.773C138.003 145.045 135.119 143.572 131.529 143.572Z" fill="#245C84"/>
<path d="M130.473 147.349L131.37 147.381V147.541C131.37 147.701 131.37 147.797 131.37 147.861C131.37 147.893 131.402 147.957 131.498 147.957C131.53 147.957 131.594 147.957 131.626 147.925C131.658 147.893 131.658 147.797 131.658 147.733C131.658 147.605 131.658 147.477 131.562 147.445C131.53 147.413 131.37 147.285 131.114 147.061C130.921 146.901 130.729 146.805 130.665 146.741C130.569 146.645 130.537 146.581 130.473 146.421C130.441 146.293 130.376 146.133 130.441 145.941C130.441 145.621 130.569 145.364 130.729 145.204C130.889 145.044 131.146 144.916 131.434 144.916V144.596H131.851V144.916C132.107 144.948 132.299 145.044 132.46 145.204C132.62 145.364 132.716 145.653 132.716 146.069V146.229L131.819 146.197V145.973C131.819 145.717 131.819 145.557 131.819 145.525C131.819 145.493 131.787 145.428 131.69 145.428C131.658 145.428 131.562 145.428 131.562 145.46C131.53 145.493 131.53 145.557 131.53 145.621C131.53 145.813 131.53 145.941 131.562 146.069C131.594 146.165 131.69 146.261 131.851 146.357C132.107 146.549 132.299 146.677 132.396 146.773C132.492 146.869 132.556 146.965 132.652 147.157C132.748 147.317 132.748 147.477 132.748 147.637C132.748 147.925 132.652 148.117 132.492 148.246C132.331 148.406 132.075 148.502 131.787 148.502V148.79H131.37V148.502C131.081 148.47 130.889 148.342 130.761 148.181C130.633 148.021 130.569 147.797 130.601 147.573C130.473 147.477 130.473 147.445 130.473 147.349Z" fill="#47E1DD"/>
<path d="M174.348 83.9661C174.252 84.4463 173.963 84.8625 173.611 85.1826C173.226 85.5667 172.713 85.7588 172.104 85.8868C170.662 86.0469 168.355 86.367 166.015 86.6871C162.169 87.2313 158.003 87.7115 156.304 87.6475C155.92 87.6475 154.285 87.7115 153.195 87.2313C153.131 87.2313 153.131 87.2313 153.099 87.1673C152.843 86.9432 152.843 86.303 152.875 85.7268C152.939 85.0225 153.131 84.3823 153.131 84.2222C153.292 82.3976 154.798 81.8214 155.535 81.5973C155.759 81.5333 155.92 81.5333 155.92 81.5333C156.016 81.5333 156.08 81.4692 156.176 81.4372C159.765 80.3168 163.804 79.9967 166.432 79.5806C167.714 79.3565 168.996 79.4205 170.214 79.8046C171.079 80.0287 171.816 80.3808 172.553 80.861C173.771 81.5653 174.636 82.6216 174.348 83.9661Z" fill="#00ADD2"/>
<path d="M156.785 85.6629C156.688 85.919 156.56 86.143 156.4 86.3671C156.336 86.4632 156.24 86.5272 156.176 86.5912C155.278 87.4875 153.772 87.3275 153.516 87.2955C153.419 87.2314 153.291 87.2314 153.195 87.1994C153.131 87.1994 153.131 87.1354 153.099 87.1354C149.638 85.6309 143.1 77.628 143.1 77.628L143.42 77.1478L144.606 75.4512C144.606 75.4512 148.067 78.7164 151.561 79.9328C153.099 80.477 154.605 80.9572 155.631 81.5974C155.791 81.6614 155.887 81.7575 156.015 81.8535C155.983 81.7895 157.522 83.5821 156.785 85.6629Z" fill="#007E9B"/>
<path opacity="0.7" d="M166.079 86.6233C162.233 87.1675 158.067 87.6477 156.368 87.5837C155.984 87.5837 154.349 87.6477 153.259 87.1675C153.195 87.1675 153.195 87.1675 153.163 87.1035C152.298 86.7194 150.343 85.8871 143.805 78.3643C143.164 77.6281 150.76 84.6066 152.939 85.663C153.836 86.0791 154.541 86.3672 154.926 86.4633C155.246 86.5273 155.727 86.5593 156.208 86.5593C156.272 86.5593 156.304 86.5593 156.432 86.5593C159.701 86.5593 162.618 84.7987 164.348 82.0137C165.214 80.6692 165.887 79.8689 165.887 79.8689C165.887 79.8689 165.983 83.8703 166.079 86.6233Z" fill="#007E9B"/>
<path opacity="0.2" d="M141.979 184.098C141.979 186.915 155.375 189.284 171.945 189.284C188.514 189.284 201.911 186.979 201.911 184.098C201.911 181.281 188.514 178.913 171.945 178.913C155.375 178.913 141.979 181.281 141.979 184.098Z" fill="#A1B4C7"/>
<path d="M187.007 179.137C187.007 179.137 187.007 181.538 187.007 182.082C187.007 182.402 185.661 182.946 184.699 182.306C184.603 182.242 184.539 182.146 184.539 182.05C184.475 181.73 184.379 179.873 184.379 178.913" fill="#ED9C80"/>
<path d="M164.541 179.041L163.964 182.818L161.624 182.594L162.265 178.753" fill="#ED9C80"/>
<path d="M182.584 128.368C182.584 128.368 188.994 118.061 180.662 109.257C180.662 109.257 174.668 112.042 170.085 112.362C166.464 112.587 164.893 111.466 164.893 111.466C164.893 111.466 164.348 122.734 164.316 128.368H182.584Z" fill="#526E83"/>
<path d="M161.432 149.11C161.368 154.488 161.753 168.477 161.176 179.393C163.323 179.777 165.502 179.777 165.502 179.777C165.502 179.777 165.502 179.777 165.567 179.777C167.265 170.398 171.72 157.113 168.707 148.854C170.374 144.052 172.97 135.569 174.156 130.832C174.156 130.735 174.22 130.671 174.22 130.575L173.515 128.335C174.06 122.316 165.567 114.25 165.567 114.25C165.567 114.25 164.861 118.571 164.605 120.428C164.381 121.868 162.842 135.953 162.105 142.74C162.041 143.156 162.009 143.54 162.009 143.924C161.913 145.109 161.785 146.005 161.689 146.549C161.592 147.189 161.592 147.734 161.592 148.246C161.496 148.47 161.496 148.79 161.432 149.11Z" fill="#526E83"/>
<path d="M178.45 148.95C179.796 154.232 182.552 173.503 183.257 179.617C183.322 179.617 183.322 179.617 183.354 179.617C184.219 179.841 187.135 179.777 187.616 179.777C187.616 179.713 187.68 179.617 187.68 179.553C187.456 172.35 189.026 153.624 185.373 147.125C183.225 143.22 177.008 143.284 178.45 148.95Z" fill="#526E83"/>
<path d="M173.194 126.928C171.432 115.98 176.015 116.684 180.469 118.989C182.328 119.949 184.636 121.614 184.54 123.471C184.315 126.672 184.924 143.062 185.405 146.519C186.463 154.298 179.54 152.121 178.835 149.944C177.072 144.47 173.835 130.705 173.194 126.928Z" fill="#526E83"/>
<path opacity="0.5" d="M167.361 167.453C166.143 175.392 165.502 179.841 165.502 179.841C167.169 170.942 171.175 158.874 169.091 150.294C168.867 149.334 168.867 148.31 169.156 147.413C170.822 142.228 173.066 135.153 174.059 130.863L174.636 127.118C174.636 127.118 171.527 122.156 171.111 121.836C170.694 121.58 171.046 124.461 171.111 128.014C171.207 131.6 171.752 132.112 170.566 136.273C169.38 140.499 167.361 146.133 166.88 148.534C168.066 152.343 168.643 159.514 167.361 167.453Z" fill="#0B4C5F"/>
<path d="M156.56 184.803C157.938 185.347 159.605 185.123 160.47 185.059C161.335 184.963 162.137 184.995 163.098 185.059C164.38 185.123 164.444 185.059 164.316 183.683C164.252 183.202 164.22 182.818 163.931 182.498C163.354 182.754 162.489 182.562 162.393 182.178C162.297 181.762 162.008 181.602 161.912 181.634C161.688 181.698 161.496 182.018 161.335 182.274C161.111 182.594 160.214 183.33 158.996 183.779C157.746 184.163 155.182 184.259 156.56 184.803Z" fill="#2F2E41"/>
<path d="M184.667 186.084C186.59 186.116 187.744 185.988 187.423 184.803C187.167 183.875 187.039 183.331 187.039 182.978C187.039 182.882 187.039 182.85 187.039 182.754C187.039 182.722 187.039 182.658 187.039 182.658C187.007 182.434 186.911 181.986 186.494 181.954C185.789 181.858 184.795 181.57 184.539 182.466V182.498C184.443 183.01 184.507 183.203 184.411 183.587C184.315 184.163 183.866 184.355 183.609 184.771C183.321 185.283 182.808 186.052 184.667 186.084Z" fill="#2F2E41"/>
<path d="M187.071 182.402C187.071 182.402 187.071 181.602 186.206 181.538C185.34 181.474 184.667 181.602 184.379 182.274C184.122 182.914 185.757 183.01 185.757 183.01L186.718 182.786L187.071 182.402Z" fill="#2F2E41"/>
<path d="M154.798 81.1493C154.798 81.1493 155.375 81.5654 157.041 81.1493C158.708 80.7331 156.945 82.8139 156.945 82.8139L154.285 82.6538L154.061 81.9496L154.798 81.1493Z" fill="#007E9B"/>
<path d="M181.559 100.356C180.854 102.181 180.694 104.198 181.142 106.118C182.008 109.96 181.046 110.184 181.046 110.184C181.046 110.184 178.322 112.489 171.431 113.545C168.226 114.089 164.797 112.489 164.765 111.944C164.669 111.4 165.406 110.088 165.406 109.864C165.566 102.181 164.445 103.461 164.06 94.9142C163.643 86.111 163.74 80.8931 166.56 79.4846C169.669 77.9481 173.867 76.8597 179.86 78.3002C184.347 79.3566 185.854 80.541 185.854 83.9022C185.854 85.0226 185.629 86.3671 185.373 87.9997C184.539 92.1932 182.777 97.251 181.559 100.356Z" fill="#00ADD2"/>
<path opacity="0.7" d="M181.558 100.356C180.853 102.181 180.693 104.198 181.142 106.118C182.007 109.96 181.046 110.184 181.046 110.184C181.046 110.184 178.321 112.489 171.431 113.545C168.226 114.089 164.797 112.489 164.765 111.945C164.765 111.785 164.765 111.624 164.829 111.4C165.149 111.464 165.534 111.496 165.886 111.56C166.784 111.656 168.867 111.785 171.976 111.4C174.315 111.144 176.527 110.44 177.969 109.896C179.027 109.512 179.635 108.391 179.411 107.335C179.155 105.83 178.834 103.654 178.866 101.989C178.866 100.292 179.668 97.4433 180.309 95.3626C180.789 93.762 180.95 92.0974 180.853 90.4968C180.629 87.6798 180.853 84.9588 180.853 84.9588L184.058 83.2622L185.821 83.9024C185.821 85.0228 185.597 86.3673 185.34 87.9999C184.539 92.1934 182.776 97.2513 181.558 100.356Z" fill="#6193B7"/>
<path d="M180.501 67.8007C180.405 72.1223 176.655 74.6192 176.655 74.6192L176.879 77.9804L174.412 79.4849L172.809 80.7014L171.688 79.1968L171.527 76.6999C171.463 76.1237 171.111 75.5795 170.502 75.4835C164.957 74.9073 165.47 71.7381 166.239 68.8251C166.496 67.7047 166.976 66.6803 167.425 65.6879C168.867 62.4228 170.406 61.4304 170.63 61.3024C176.399 58.7414 180.597 63.4791 180.501 67.8007Z" fill="#D09B7D"/>
<path d="M176.911 76.7319C176.911 76.7319 177.488 77.0521 178.129 77.9484C178.129 77.9484 177.264 78.3325 176.591 78.7487C175.95 79.1648 172.745 81.4056 172.745 81.4056L171.848 79.4849C171.784 79.4849 175.085 77.2121 176.911 76.7319Z" fill="#E1E1E1"/>
<path d="M172.009 79.6128C172.009 79.6128 170.566 80.0289 170.15 80.9893C170.15 80.9893 169.381 79.8048 170.342 77.596C170.342 77.596 171.111 76.9558 171.72 76.6997L172.009 79.6128Z" fill="#E1E1E1"/>
<path d="M173.546 68.9208C173.802 68.3446 175.084 67.6403 175.629 68.6647C175.886 69.2089 175.95 70.0412 175.789 70.6814C175.629 71.3217 175.148 71.8659 174.507 72.0259C174.123 72.122 173.706 72.0259 173.386 71.8659C173.129 71.7058 172.905 71.4497 172.969 71.1296" fill="#D09B7D"/>
<path d="M141.882 72.0262C141.241 72.1862 140.6 72.3463 139.959 72.5064C139.093 72.7304 138.26 72.9225 137.395 72.8905C137.074 72.8905 136.69 72.7945 136.593 72.4743C136.529 72.2503 136.658 72.0582 136.754 71.8981C137.01 71.482 137.491 71.1939 137.939 70.9378C138.1 70.8418 138.324 70.7137 138.484 70.6817H138.548C138.613 70.6817 138.645 70.6817 138.645 70.6177" fill="#D09B7D"/>
<path d="M167.361 66.3281C166.817 66.8083 166.336 67.2885 165.919 67.8327C165.823 67.9287 165.695 68.0888 165.663 68.2168C165.342 69.0811 166.24 69.5933 167.201 69.6573" fill="#D09B7D"/>
<path d="M150.151 98.5315C149.446 98.6275 148.773 98.2754 148.164 97.9553C147.139 97.3791 146.882 97.0589 145.857 96.4507C145.696 96.3547 144.414 95.8745 144.254 95.8745C144.03 95.8745 144.03 95.9706 144.094 96.2587C144.19 96.6748 145.216 97.315 145.28 97.7632C145.344 98.0833 144.478 98.8196 141.177 98.7876C140.921 98.7876 140.056 98.5635 140.056 98.8516C140.056 99.0116 140.697 99.3958 140.793 99.4278C141.498 100.068 142.459 100.388 143.357 100.644C144.094 100.9 144.895 101.188 145.696 101.188C146.401 101.252 147.074 101.124 147.78 100.964C148.421 100.868 148.997 100.74 149.638 100.58C150.343 100.42 151.016 100.164 151.722 99.8439" fill="#D09B7D"/>
<path d="M168.964 99.4918C168.643 99.4918 168.259 99.1717 167.938 98.7556C167.458 98.1153 167.073 97.315 166.977 97.155C165.919 95.6504 166.817 94.2099 167.361 93.5697C167.522 93.3456 167.682 93.2496 167.682 93.2496C167.746 93.1855 167.778 93.0895 167.842 92.9935C170.31 89.7923 173.707 86.9113 175.79 84.8945C176.752 83.9342 181.88 78.9084 182.681 79.1965C186.751 80.3809 186.591 83.1979 185.726 85.1826C185.405 85.9829 184.828 86.4631 184.187 87.0393C180.758 90.1444 177.521 93.4416 173.996 96.3867C173.419 96.8669 172.81 97.4111 172.169 97.8272C171.784 97.9873 170.31 99.1717 168.964 99.4918Z" fill="#00ADD2"/>
<path d="M158.291 101.029C154.509 101.125 149.798 101.093 149.798 101.093L149.734 100.548L149.638 98.4677C149.638 98.4677 158.708 96.2909 162.682 94.6903C164.38 93.986 166.047 93.6659 167.393 93.5699C167.553 93.5699 167.713 93.5059 167.874 93.5059C167.874 93.5059 170.502 93.89 171.303 95.9708C171.399 96.2268 171.399 96.515 171.399 96.707C171.399 96.771 171.399 96.8031 171.399 96.8671C171.303 98.2436 169.733 99.1079 169.476 99.268C169.316 99.332 169.156 99.364 168.995 99.428C165.534 100.676 161.816 100.933 158.291 101.029Z" fill="#00ADD2"/>
<path opacity="0.7" d="M158.291 101.029C154.509 101.125 149.797 101.093 149.797 101.093L149.733 100.549C152.714 100.324 164.957 99.5242 167.937 98.7239C168.098 98.6599 168.258 98.6279 168.354 98.6279C169.54 98.1477 170.437 97.6035 171.335 96.9312C172.136 96.355 172.873 95.6508 173.738 94.7865C175.501 92.9618 183.193 85.9833 184.411 84.9269C184.891 84.5107 185.789 82.7821 186.077 82.1099C186.334 82.526 186.173 83.6144 186.077 84.0946C185.981 84.6388 185.661 85.7592 185.18 86.1753C182.039 88.9604 174.828 96.0989 172.136 97.8596C171.751 98.1157 170.277 99.2361 168.931 99.6202C165.534 100.677 161.816 100.933 158.291 101.029Z" fill="#007E9B"/>
<path d="M167.072 61.3984C167.104 62.967 168.45 64.3435 169.957 64.6636C171.495 65.0157 173.162 64.4715 174.283 63.4472C174.187 64.9517 175.918 66.3282 177.392 65.816C176.783 67.1605 177.488 68.9531 178.866 69.5294C178.225 69.9455 178.322 71.0979 178.963 71.5461C179.668 71.9622 180.565 71.7061 181.078 71.0339C181.559 70.4257 181.591 69.5294 181.334 68.7611C183.225 68.2809 184.539 66.3282 184.347 64.4075C184.155 62.4868 182.424 60.8542 180.501 60.7262C180.533 59.1256 179.443 57.525 177.873 56.9808C176.367 56.4046 174.508 56.9168 173.482 58.1012C173.578 58.0372 172.457 57.6851 172.36 57.621C171.88 57.493 171.399 57.397 170.918 57.493C169.989 57.621 169.123 58.0372 168.45 58.6774C167.809 59.2216 167.361 59.9579 167.2 60.7582C167.136 61.0143 167.104 61.2384 167.072 61.3984Z" fill="#515A72"/>
<path d="M104.477 87.1996C104.99 86.6874 105.278 86.0152 105.278 85.3109V84.6387C105.278 83.9344 104.99 83.2302 104.477 82.75C103.964 82.2378 103.291 81.9497 102.586 81.9497H89.6062C88.9011 81.9497 88.2281 82.2378 87.7153 82.75C87.2025 83.2622 86.9141 83.9344 86.9141 84.6387V85.3109C86.9141 86.0152 87.2025 86.7194 87.7153 87.1996C88.2281 87.7118 88.9011 87.9999 89.6062 87.9999H102.586C103.291 87.9999 103.964 87.7118 104.477 87.1996Z" fill="#082534"/>
<path fill-rule="evenodd" clip-rule="evenodd" d="M139.029 145.045V145.173C138.901 147.222 135.6 148.854 131.53 148.854C127.46 148.854 124.158 147.222 124.03 145.173V145.045V141.972H127.107C128.357 141.523 129.895 141.235 131.53 141.235C133.196 141.235 134.735 141.523 135.953 141.972H139.029V145.045Z" fill="#A9C0D0"/>
<path d="M131.53 145.909C135.672 145.909 139.029 144.203 139.029 142.099C139.029 139.996 135.672 138.29 131.53 138.29C127.388 138.29 124.03 139.996 124.03 142.099C124.03 144.203 127.388 145.909 131.53 145.909Z" fill="#7C9AC8"/>
<path d="M131.529 138.771C127.94 138.771 125.023 140.211 125.023 141.972C125.023 143.764 127.972 145.173 131.529 145.173C135.119 145.173 138.035 143.732 138.035 141.972C138.003 140.243 135.119 138.771 131.529 138.771Z" fill="#2A658F"/>
<path d="M130.473 142.547L131.37 142.579V142.739C131.37 142.9 131.37 142.996 131.37 143.06C131.37 143.092 131.402 143.156 131.498 143.156C131.53 143.156 131.594 143.156 131.626 143.124C131.658 143.092 131.658 142.996 131.658 142.932C131.658 142.804 131.658 142.675 131.562 142.643C131.53 142.611 131.37 142.483 131.114 142.259C130.921 142.099 130.729 142.003 130.665 141.939C130.569 141.843 130.537 141.779 130.473 141.619C130.441 141.491 130.376 141.331 130.441 141.139C130.441 140.819 130.569 140.563 130.729 140.403C130.889 140.243 131.146 140.115 131.434 140.115V139.794H131.851V140.115C132.107 140.147 132.299 140.243 132.46 140.403C132.62 140.563 132.716 140.851 132.716 141.267V141.427L131.819 141.395V141.171C131.819 140.915 131.819 140.755 131.819 140.723C131.819 140.691 131.787 140.627 131.69 140.627C131.658 140.627 131.562 140.627 131.562 140.659C131.53 140.691 131.53 140.755 131.53 140.819C131.53 141.011 131.53 141.139 131.562 141.267C131.594 141.363 131.69 141.459 131.851 141.555C132.107 141.747 132.299 141.875 132.396 141.971C132.492 142.067 132.556 142.163 132.652 142.355C132.748 142.515 132.748 142.675 132.748 142.836C132.748 143.124 132.652 143.316 132.492 143.444C132.331 143.604 132.075 143.7 131.787 143.7V143.988H131.37V143.7C131.081 143.668 130.889 143.54 130.761 143.38C130.633 143.22 130.569 142.996 130.601 142.772C130.473 142.675 130.473 142.643 130.473 142.547Z" fill="#47E1DD"/>
<path fill-rule="evenodd" clip-rule="evenodd" d="M105.058 151.447V151.575C104.929 153.623 101.628 155.256 97.5581 155.256C93.4879 155.256 90.1868 153.623 90.0586 151.575V151.447V148.373H93.1353C94.3852 147.925 95.9236 147.637 97.5581 147.637C99.2247 147.637 100.763 147.925 101.981 148.373H105.058V151.447Z" fill="#A9C0D0"/>
<path d="M97.5581 152.311C101.7 152.311 105.058 150.606 105.058 148.502C105.058 146.398 101.7 144.692 97.5581 144.692C93.4162 144.692 90.0586 146.398 90.0586 148.502C90.0586 150.606 93.4162 152.311 97.5581 152.311Z" fill="#7C9AC8"/>
<path d="M97.5577 145.172C93.9682 145.172 91.0518 146.613 91.0518 148.374C91.0518 150.166 94.0003 151.575 97.5577 151.575C101.147 151.575 104.064 150.134 104.064 148.374C104.032 146.645 101.147 145.172 97.5577 145.172Z" fill="#245C84"/>
<path d="M96.4999 148.95L97.3973 148.982V149.142C97.3973 149.302 97.3973 149.398 97.3973 149.462C97.3973 149.494 97.4293 149.558 97.5255 149.558C97.5575 149.558 97.6216 149.558 97.6537 149.526C97.6857 149.494 97.6857 149.398 97.6857 149.334C97.6857 149.206 97.6857 149.078 97.5896 149.046C97.5575 149.014 97.3973 148.886 97.1409 148.662C96.9486 148.502 96.7563 148.406 96.6922 148.342C96.5961 148.246 96.564 148.181 96.4999 148.021C96.4679 147.893 96.4038 147.733 96.4679 147.541C96.4679 147.221 96.5961 146.965 96.7563 146.805C96.9165 146.645 97.1729 146.517 97.4614 146.517V146.197H97.878V146.517C98.1344 146.549 98.3267 146.645 98.487 146.805C98.6472 146.965 98.7434 147.253 98.7434 147.669V147.829L97.846 147.797V147.573C97.846 147.317 97.846 147.157 97.846 147.125C97.846 147.093 97.8139 147.029 97.7178 147.029C97.6857 147.029 97.5896 147.029 97.5896 147.061C97.5575 147.093 97.5575 147.157 97.5575 147.221C97.5575 147.413 97.5575 147.541 97.5896 147.669C97.6216 147.765 97.7178 147.861 97.878 147.957C98.1344 148.149 98.3267 148.278 98.4229 148.374C98.519 148.47 98.5831 148.566 98.6793 148.758C98.7754 148.918 98.7754 149.078 98.7754 149.238C98.7754 149.526 98.6793 149.718 98.519 149.846C98.3588 150.006 98.1024 150.102 97.8139 150.102V150.39H97.3973V150.102C97.1088 150.07 96.9165 149.942 96.7883 149.782C96.6602 149.622 96.5961 149.398 96.6281 149.174C96.4999 149.078 96.4999 149.046 96.4999 148.95Z" fill="#47E1DD"/>
<path fill-rule="evenodd" clip-rule="evenodd" d="M105.058 146.645V146.773C104.929 148.822 101.628 150.454 97.5581 150.454C93.4879 150.454 90.1868 148.822 90.0586 146.773V146.645V143.572H93.1353C94.3852 143.124 95.9236 142.835 97.5581 142.835C99.2247 142.835 100.763 143.124 101.981 143.572H105.058V146.645Z" fill="#A9C0D0"/>
<path d="M97.5581 147.509C101.7 147.509 105.058 145.804 105.058 143.7C105.058 141.596 101.7 139.891 97.5581 139.891C93.4162 139.891 90.0586 141.596 90.0586 143.7C90.0586 145.804 93.4162 147.509 97.5581 147.509Z" fill="#7C9AC8"/>
<path d="M97.5577 140.371C93.9682 140.371 91.0518 141.811 91.0518 143.572C91.0518 145.364 94.0003 146.773 97.5577 146.773C101.147 146.773 104.064 145.332 104.064 143.572C104.032 141.843 101.147 140.371 97.5577 140.371Z" fill="#245C84"/>
<path d="M96.4999 144.148L97.3973 144.18V144.34C97.3973 144.5 97.3973 144.596 97.3973 144.66C97.3973 144.692 97.4293 144.756 97.5255 144.756C97.5575 144.756 97.6216 144.756 97.6537 144.724C97.6857 144.692 97.6857 144.596 97.6857 144.532C97.6857 144.404 97.6857 144.276 97.5896 144.244C97.5575 144.212 97.3973 144.084 97.1409 143.86C96.9486 143.7 96.7563 143.604 96.6922 143.54C96.5961 143.444 96.564 143.38 96.4999 143.22C96.4679 143.092 96.4038 142.932 96.4679 142.74C96.4679 142.419 96.5961 142.163 96.7563 142.003C96.9165 141.843 97.1729 141.715 97.4614 141.715V141.395H97.878V141.715C98.1344 141.747 98.3267 141.843 98.487 142.003C98.6472 142.163 98.7434 142.451 98.7434 142.868V143.028L97.846 142.996V142.772C97.846 142.515 97.846 142.355 97.846 142.323C97.846 142.291 97.8139 142.227 97.7178 142.227C97.6857 142.227 97.5896 142.227 97.5896 142.259C97.5575 142.291 97.5575 142.355 97.5575 142.419C97.5575 142.611 97.5575 142.74 97.5896 142.868C97.6216 142.964 97.7178 143.06 97.878 143.156C98.1344 143.348 98.3267 143.476 98.4229 143.572C98.519 143.668 98.5831 143.764 98.6793 143.956C98.7754 144.116 98.7754 144.276 98.7754 144.436C98.7754 144.724 98.6793 144.916 98.519 145.044C98.3588 145.204 98.1024 145.3 97.8139 145.3V145.589H97.3973V145.3C97.1088 145.268 96.9165 145.14 96.7883 144.98C96.6602 144.82 96.5961 144.596 96.6281 144.372C96.4999 144.276 96.4999 144.244 96.4999 144.148Z" fill="#47E1DD"/>
<path fill-rule="evenodd" clip-rule="evenodd" d="M105.058 141.844V141.972C104.929 144.02 101.628 145.653 97.5581 145.653C93.4879 145.653 90.1868 144.02 90.0586 141.972V141.844V138.77H93.1353C94.3852 138.322 95.9236 138.034 97.5581 138.034C99.2247 138.034 100.763 138.322 101.981 138.77H105.058V141.844Z" fill="#A9C0D0"/>
<path d="M97.5581 142.708C101.7 142.708 105.058 141.002 105.058 138.898C105.058 136.794 101.7 135.089 97.5581 135.089C93.4162 135.089 90.0586 136.794 90.0586 138.898C90.0586 141.002 93.4162 142.708 97.5581 142.708Z" fill="#7C9AC8"/>
<path d="M97.5577 135.569C93.9682 135.569 91.0518 137.009 91.0518 138.77C91.0518 140.563 94.0003 141.971 97.5577 141.971C101.147 141.971 104.064 140.531 104.064 138.77C104.032 137.041 101.147 135.569 97.5577 135.569Z" fill="#2A658F"/>
<path d="M96.4999 139.346L97.3973 139.378V139.538C97.3973 139.698 97.3973 139.794 97.3973 139.858C97.3973 139.89 97.4293 139.954 97.5255 139.954C97.5575 139.954 97.6216 139.954 97.6537 139.922C97.6857 139.89 97.6857 139.794 97.6857 139.73C97.6857 139.602 97.6857 139.474 97.5896 139.442C97.5575 139.41 97.3973 139.282 97.1409 139.058C96.9486 138.898 96.7563 138.802 96.6922 138.738C96.5961 138.642 96.564 138.578 96.4999 138.418C96.4679 138.29 96.4038 138.13 96.4679 137.938C96.4679 137.618 96.5961 137.362 96.7563 137.201C96.9165 137.041 97.1729 136.913 97.4614 136.913V136.593H97.878V136.913C98.1344 136.945 98.3267 137.041 98.487 137.201C98.6472 137.362 98.7434 137.65 98.7434 138.066V138.226L97.846 138.194V137.97C97.846 137.714 97.846 137.554 97.846 137.522C97.846 137.49 97.8139 137.426 97.7178 137.426C97.6857 137.426 97.5896 137.426 97.5896 137.458C97.5575 137.49 97.5575 137.554 97.5575 137.618C97.5575 137.81 97.5575 137.938 97.5896 138.066C97.6216 138.162 97.7178 138.258 97.878 138.354C98.1344 138.546 98.3267 138.674 98.4229 138.77C98.519 138.866 98.5831 138.962 98.6793 139.154C98.7754 139.314 98.7754 139.474 98.7754 139.634C98.7754 139.922 98.6793 140.115 98.519 140.243C98.3588 140.403 98.1024 140.499 97.8139 140.499V140.787H97.3973V140.499C97.1088 140.467 96.9165 140.339 96.7883 140.179C96.6602 140.019 96.5961 139.794 96.6281 139.57C96.4999 139.474 96.4999 139.442 96.4999 139.346Z" fill="#47E1DD"/>
<path fill-rule="evenodd" clip-rule="evenodd" d="M124.992 162.843V163.035C124.799 166.012 119.992 168.381 114.095 168.381C108.198 168.381 103.391 166.012 103.198 163.035V162.843V158.393H107.653C109.448 157.721 111.691 157.337 114.095 157.337C116.499 157.337 118.742 157.721 120.537 158.393H124.992V162.843Z" fill="#A9C0D0"/>
<path d="M114.095 164.092C120.113 164.092 124.992 161.612 124.992 158.554C124.992 155.495 120.113 153.016 114.095 153.016C108.077 153.016 103.198 155.495 103.198 158.554C103.198 161.612 108.077 164.092 114.095 164.092Z" fill="#7C9AC8"/>
<path d="M114.095 153.751C108.903 153.751 104.641 155.864 104.641 158.393C104.641 160.986 108.903 163.035 114.095 163.035C119.287 163.035 123.55 160.922 123.55 158.393C123.486 155.864 119.287 153.751 114.095 153.751Z" fill="#245C84"/>
<path d="M112.556 159.258L113.87 159.322V159.546C113.87 159.77 113.87 159.898 113.87 160.026C113.87 160.09 113.935 160.154 114.063 160.154C114.127 160.154 114.191 160.154 114.255 160.09C114.319 160.026 114.319 159.898 114.319 159.802C114.319 159.61 114.319 159.45 114.191 159.386C114.127 159.322 113.903 159.162 113.518 158.842C113.23 158.618 112.973 158.49 112.845 158.362C112.717 158.233 112.653 158.137 112.556 157.881C112.492 157.689 112.428 157.465 112.492 157.177C112.492 156.697 112.685 156.345 112.909 156.089C113.133 155.865 113.518 155.673 113.935 155.673V155.192H114.544V155.673C114.896 155.737 115.217 155.865 115.441 156.089C115.665 156.313 115.793 156.761 115.793 157.337V157.561L114.479 157.497V157.209C114.479 156.857 114.479 156.601 114.479 156.537C114.479 156.473 114.415 156.409 114.287 156.409C114.223 156.409 114.095 156.409 114.095 156.473C114.031 156.537 114.031 156.601 114.031 156.697C114.031 156.985 114.031 157.177 114.095 157.369C114.159 157.497 114.287 157.657 114.511 157.785C114.864 158.073 115.184 158.265 115.281 158.394C115.409 158.522 115.505 158.682 115.633 158.938C115.761 159.162 115.761 159.418 115.761 159.642C115.761 160.058 115.633 160.346 115.409 160.538C115.184 160.762 114.8 160.89 114.383 160.89V161.307H113.774V160.89C113.358 160.826 113.069 160.666 112.877 160.41C112.685 160.154 112.589 159.866 112.653 159.514C112.556 159.418 112.556 159.354 112.556 159.258Z" fill="#47E1DD"/>
<path fill-rule="evenodd" clip-rule="evenodd" d="M124.992 155.704V155.896C124.799 158.873 119.992 161.242 114.095 161.242C108.198 161.242 103.391 158.873 103.198 155.896V155.704V151.255H107.653C109.448 150.582 111.691 150.198 114.095 150.198C116.499 150.198 118.742 150.582 120.537 151.255H124.992V155.704Z" fill="#A9C0D0"/>
<path d="M114.095 156.953C120.113 156.953 124.992 154.474 124.992 151.415C124.992 148.356 120.113 145.877 114.095 145.877C108.077 145.877 103.198 148.356 103.198 151.415C103.198 154.474 108.077 156.953 114.095 156.953Z" fill="#7C9AC8"/>
<path d="M114.095 146.613C108.903 146.613 104.641 148.726 104.641 151.255C104.641 153.848 108.903 155.897 114.095 155.897C119.287 155.897 123.55 153.784 123.55 151.255C123.486 148.726 119.287 146.613 114.095 146.613Z" fill="#245C84"/>
<path d="M112.556 152.119L113.87 152.183V152.407C113.87 152.631 113.87 152.759 113.87 152.887C113.87 152.951 113.935 153.016 114.063 153.016C114.127 153.016 114.191 153.016 114.255 152.951C114.319 152.887 114.319 152.759 114.319 152.663C114.319 152.471 114.319 152.311 114.191 152.247C114.127 152.183 113.903 152.023 113.518 151.703C113.23 151.479 112.973 151.351 112.845 151.223C112.717 151.095 112.653 150.999 112.556 150.743C112.492 150.551 112.428 150.327 112.492 150.038C112.492 149.558 112.685 149.206 112.909 148.95C113.133 148.726 113.518 148.534 113.935 148.534V148.054H114.544V148.534C114.896 148.598 115.217 148.726 115.441 148.95C115.665 149.174 115.793 149.622 115.793 150.198V150.423L114.479 150.359V150.07C114.479 149.718 114.479 149.462 114.479 149.398C114.479 149.334 114.415 149.27 114.287 149.27C114.223 149.27 114.095 149.27 114.095 149.334C114.031 149.398 114.031 149.462 114.031 149.558C114.031 149.846 114.031 150.038 114.095 150.23C114.159 150.359 114.287 150.519 114.511 150.647C114.864 150.935 115.184 151.127 115.281 151.255C115.409 151.383 115.505 151.543 115.633 151.799C115.761 152.023 115.761 152.279 115.761 152.503C115.761 152.919 115.633 153.208 115.409 153.4C115.184 153.624 114.8 153.752 114.383 153.752V154.168H113.774V153.752C113.358 153.688 113.069 153.528 112.877 153.272C112.685 153.016 112.589 152.727 112.653 152.375C112.556 152.279 112.556 152.215 112.556 152.119Z" fill="#47E1DD"/>
<path fill-rule="evenodd" clip-rule="evenodd" d="M124.992 148.566V148.758C124.799 151.735 119.992 154.104 114.095 154.104C108.198 154.104 103.391 151.735 103.198 148.758V148.566V144.116H107.653C109.448 143.444 111.691 143.06 114.095 143.06C116.499 143.06 118.742 143.444 120.537 144.116H124.992V148.566Z" fill="#A9C0D0"/>
<path d="M114.095 149.847C120.113 149.847 124.992 147.367 124.992 144.309C124.992 141.25 120.113 138.771 114.095 138.771C108.077 138.771 103.198 141.25 103.198 144.309C103.198 147.367 108.077 149.847 114.095 149.847Z" fill="#7C9AC8"/>
<path d="M114.095 139.475C108.903 139.475 104.641 141.587 104.641 144.116C104.641 146.709 108.903 148.758 114.095 148.758C119.287 148.758 123.55 146.645 123.55 144.116C123.486 141.587 119.287 139.475 114.095 139.475Z" fill="#245C84"/>
<path d="M112.556 144.981L113.87 145.045V145.269C113.87 145.493 113.87 145.621 113.87 145.749C113.87 145.813 113.935 145.877 114.063 145.877C114.127 145.877 114.191 145.877 114.255 145.813C114.319 145.749 114.319 145.621 114.319 145.525C114.319 145.333 114.319 145.173 114.191 145.109C114.127 145.045 113.903 144.884 113.518 144.564C113.23 144.34 112.973 144.212 112.845 144.084C112.717 143.956 112.653 143.86 112.556 143.604C112.492 143.412 112.428 143.188 112.492 142.9C112.492 142.42 112.685 142.067 112.909 141.811C113.133 141.587 113.518 141.395 113.935 141.395V140.915H114.544V141.395C114.896 141.459 115.217 141.587 115.441 141.811C115.665 142.035 115.793 142.484 115.793 143.06V143.284L114.479 143.22V142.932C114.479 142.58 114.479 142.324 114.479 142.26C114.479 142.195 114.415 142.131 114.287 142.131C114.223 142.131 114.095 142.131 114.095 142.196C114.031 142.26 114.031 142.324 114.031 142.42C114.031 142.708 114.031 142.9 114.095 143.092C114.159 143.22 114.287 143.38 114.511 143.508C114.864 143.796 115.184 143.988 115.281 144.116C115.409 144.244 115.505 144.404 115.633 144.66C115.761 144.884 115.761 145.141 115.761 145.365C115.761 145.781 115.633 146.069 115.409 146.261C115.184 146.485 114.8 146.613 114.383 146.613V147.029H113.774V146.613C113.358 146.549 113.069 146.389 112.877 146.133C112.685 145.909 112.589 145.589 112.653 145.237C112.556 145.141 112.556 145.077 112.556 144.981Z" fill="#47E1DD"/>
<path fill-rule="evenodd" clip-rule="evenodd" d="M124.992 140.723V140.915C124.799 143.892 119.992 146.261 114.095 146.261C108.198 146.261 103.391 143.892 103.198 140.915V140.723V136.273H107.653C109.448 135.601 111.691 135.217 114.095 135.217C116.499 135.217 118.742 135.601 120.537 136.273H124.992V140.723Z" fill="#A9C0D0"/>
<path d="M114.095 141.972C120.113 141.972 124.992 139.492 124.992 136.434C124.992 133.375 120.113 130.896 114.095 130.896C108.077 130.896 103.198 133.375 103.198 136.434C103.198 139.492 108.077 141.972 114.095 141.972Z" fill="#7C9AC8"/>
<path d="M114.095 131.632C108.903 131.632 104.641 133.745 104.641 136.274C104.641 138.866 108.903 140.915 114.095 140.915C119.287 140.915 123.55 138.802 123.55 136.274C123.486 133.745 119.287 131.632 114.095 131.632Z" fill="#2A658F"/>
<path d="M112.556 137.106L113.87 137.17V137.394C113.87 137.618 113.87 137.746 113.87 137.874C113.87 137.938 113.935 138.002 114.063 138.002C114.127 138.002 114.191 138.002 114.255 137.938C114.319 137.874 114.319 137.746 114.319 137.65C114.319 137.458 114.319 137.298 114.191 137.234C114.127 137.17 113.903 137.009 113.518 136.689C113.23 136.465 112.973 136.337 112.845 136.209C112.717 136.081 112.653 135.985 112.556 135.729C112.492 135.537 112.428 135.313 112.492 135.025C112.492 134.545 112.685 134.192 112.909 133.936C113.133 133.712 113.518 133.52 113.935 133.52V133.04H114.544V133.52C114.896 133.584 115.217 133.712 115.441 133.936C115.665 134.16 115.793 134.609 115.793 135.185V135.409L114.479 135.345V135.089C114.479 134.737 114.479 134.481 114.479 134.417C114.479 134.353 114.415 134.288 114.287 134.288C114.223 134.288 114.095 134.288 114.095 134.353C114.031 134.417 114.031 134.481 114.031 134.577C114.031 134.865 114.031 135.057 114.095 135.249C114.159 135.377 114.287 135.537 114.511 135.665C114.864 135.953 115.184 136.145 115.281 136.273C115.409 136.401 115.505 136.561 115.633 136.817C115.761 137.041 115.761 137.298 115.761 137.522C115.761 137.938 115.633 138.226 115.409 138.418C115.184 138.642 114.8 138.77 114.383 138.77V139.186H113.774V138.77C113.358 138.706 113.069 138.546 112.877 138.29C112.685 138.034 112.589 137.746 112.653 137.394C112.556 137.298 112.556 137.234 112.556 137.106Z" fill="#47E1DD"/>
<path d="M138.709 100.42C130.954 98.5636 126.178 90.8168 128.037 83.07C129.896 75.3232 137.652 70.5534 145.408 72.4101C153.164 74.2668 157.939 82.0136 156.08 89.7604C154.221 97.5072 146.433 102.277 138.709 100.42Z" fill="#7C9AC8"/>
<path d="M142.138 75.2271C136.049 75.2271 131.081 80.2529 131.081 86.2711C131.081 92.4493 136.049 97.3151 142.138 97.3151C148.227 97.3151 153.195 92.2892 153.195 86.2711C153.099 80.2529 148.227 75.2271 142.138 75.2271Z" fill="#2A658F"/>
<path d="M138.773 88.4161L141.593 88.5442V89.0564C141.593 89.5686 141.593 89.8246 141.593 90.0807C141.593 90.2088 141.722 90.3368 141.978 90.3368C142.106 90.3368 142.234 90.3368 142.363 90.2088C142.491 90.0807 142.491 89.8246 142.491 89.5686C142.491 89.1844 142.491 88.8003 142.234 88.6722C142.106 88.5442 141.593 88.16 140.824 87.5198C140.183 87.0076 139.67 86.7515 139.414 86.4954C139.158 86.2394 139.029 85.9833 138.773 85.4711C138.645 85.0869 138.517 84.5748 138.645 83.9345C138.645 82.9101 139.029 82.1419 139.542 81.6297C140.055 81.1175 140.824 80.7334 141.722 80.7334V79.709H143.004V80.7334C143.773 80.8614 144.414 81.1175 144.927 81.6297C145.439 82.1419 145.696 83.0382 145.696 84.3187V84.8308L142.875 84.7028V84.0626C142.875 83.2943 142.875 82.7821 142.875 82.6541C142.875 82.526 142.747 82.398 142.491 82.398C142.363 82.398 142.106 82.398 142.106 82.526C141.978 82.654 141.978 82.7821 141.978 83.0382C141.978 83.6784 141.978 84.0626 142.106 84.4467C142.234 84.7028 142.491 85.0869 143.004 85.343C143.773 85.9833 144.414 86.3674 144.67 86.6235C144.927 86.8796 145.183 87.2637 145.439 87.7759C145.696 88.2881 145.696 88.8003 145.696 89.3125C145.696 90.2088 145.439 90.849 144.927 91.2332C144.414 91.7453 143.645 92.0014 142.747 92.0014V92.8978H141.465V92.0014C140.568 91.8734 139.927 91.4893 139.542 90.9771C139.158 90.4649 138.901 89.8247 139.029 89.0564C138.773 88.8003 138.773 88.6722 138.773 88.4161Z" fill="#47E1DD"/>
<path d="M61.823 14.2773C61.9191 14.5974 61.9512 14.9176 61.9191 15.2697C61.8871 15.6218 61.7909 15.9419 61.6307 16.23C61.4704 16.5181 61.2461 16.8062 60.9897 17.0303C60.7013 17.2544 60.3808 17.4465 59.9641 17.5745C59.6116 17.6706 59.259 17.7346 58.9385 17.7026C58.586 17.7026 58.2976 17.6385 57.9771 17.5105C57.6886 17.3824 57.4002 17.2224 57.1758 17.0303C56.9515 16.8383 56.7272 16.5822 56.5669 16.2941L57.0156 15.9739C57.304 16.4541 57.7207 16.7742 58.2335 16.9663C58.7463 17.1584 59.259 17.1584 59.8359 16.9983C60.1564 16.9023 60.4128 16.7742 60.6051 16.5822C60.8295 16.3901 60.9897 16.198 61.1179 15.9739C61.2461 15.7499 61.3102 15.4938 61.3102 15.2377C61.3422 14.9816 61.3102 14.6935 61.214 14.4374C61.0858 13.9892 60.8615 13.6371 60.509 13.381C60.1885 13.1249 59.7077 12.9648 59.0667 12.8688L58.2655 12.7408C57.9771 12.6767 57.6566 12.6447 57.4002 12.5487C57.1118 12.4847 56.8554 12.3886 56.631 12.2606C56.4067 12.1325 56.1823 11.9725 56.0221 11.7804C55.8618 11.5883 55.7016 11.3323 55.6375 11.0442C55.5413 10.724 55.5093 10.4359 55.5734 10.1478C55.6054 9.85972 55.7016 9.57162 55.8618 9.34754C56.0221 9.09145 56.2144 8.86737 56.4387 8.6753C56.6951 8.48323 56.9515 8.35518 57.272 8.25914C57.8168 8.09909 58.2976 8.09909 58.7783 8.22713C59.259 8.35518 59.6757 8.57926 60.0282 8.93139L59.6436 9.34754C59.3552 9.09145 59.0347 8.93139 58.6501 8.80334C58.2655 8.6753 57.8809 8.6753 57.4322 8.80334C56.9515 8.9634 56.599 9.21949 56.3746 9.57162C56.1503 9.92375 56.1182 10.3719 56.2464 10.8201C56.3105 11.0442 56.4067 11.2362 56.5349 11.3963C56.6631 11.5563 56.7913 11.6844 56.9836 11.7804C57.1758 11.8765 57.3681 11.9725 57.6245 12.0365C57.8809 12.1005 58.1373 12.1646 58.4578 12.1966L59.1949 12.3246C59.9641 12.4527 60.541 12.6447 60.9576 12.9648C61.3743 13.285 61.6307 13.7011 61.823 14.2773Z" fill="#091827" stroke="#082534" stroke-width="0.213149"/>
<path d="M57.2404 8.38722L56.9199 7.29883" stroke="#00ADD2" stroke-width="0.48344" stroke-linecap="round" stroke-linejoin="round"/>
<path d="M59.9964 18.4068L59.708 17.3184" stroke="#00ADD2" stroke-width="0.48344" stroke-linecap="round" stroke-linejoin="round"/>
<path d="M40.1573 69.593C40.2214 69.785 40.2534 70.0091 40.2214 70.2332C40.1893 70.4573 40.1252 70.6814 40.0291 70.8734C39.9329 71.0655 39.7727 71.2576 39.5804 71.4176C39.3881 71.5777 39.1637 71.7057 38.9073 71.7698C38.683 71.8338 38.4586 71.8658 38.2343 71.8658C38.01 71.8658 37.7856 71.8018 37.5933 71.7377C37.401 71.6737 37.2087 71.5457 37.0485 71.4176C36.8882 71.2896 36.76 71.1295 36.6639 70.9375L36.9523 70.7134C37.1446 71.0335 37.4331 71.2576 37.7536 71.3856C38.1061 71.5137 38.4586 71.5137 38.8112 71.4176C39.0035 71.3536 39.1958 71.2576 39.324 71.1295C39.4522 71.0015 39.5804 70.8734 39.6445 70.7134C39.7086 70.5533 39.7727 70.3933 39.7727 70.2012C39.7727 70.0091 39.7727 69.8491 39.7086 69.689C39.6124 69.4009 39.4522 69.1448 39.2599 68.9847C39.0355 68.8247 38.715 68.6966 38.2984 68.6326L37.7536 68.5366C37.5613 68.5046 37.369 68.4726 37.1767 68.4085C36.9844 68.3445 36.8241 68.2805 36.6639 68.2165C36.5036 68.1204 36.3754 68.0244 36.2472 67.8964C36.1191 67.7683 36.055 67.6083 35.9909 67.4162C35.9268 67.2241 35.9268 67.032 35.9268 66.808C35.9588 66.6159 36.0229 66.4238 36.1191 66.2638C36.2152 66.1037 36.3434 65.9436 36.5036 65.8156C36.6639 65.6876 36.8562 65.5915 37.0485 65.5275C37.401 65.4315 37.7215 65.3995 38.042 65.4955C38.3625 65.5915 38.6189 65.7516 38.8753 65.9757L38.6189 66.2638C38.4266 66.1037 38.2023 65.9757 37.9459 65.9116C37.6895 65.8156 37.4331 65.8476 37.1446 65.9116C36.8241 66.0077 36.5998 66.1677 36.4395 66.4238C36.2793 66.6799 36.2473 66.936 36.3434 67.2561C36.3754 67.4162 36.4395 67.5442 36.5357 67.6403C36.5998 67.7363 36.6959 67.8323 36.8241 67.8964C36.9523 67.9604 37.0805 68.0244 37.2408 68.0564C37.401 68.0884 37.5933 68.1204 37.8177 68.1845L38.2984 68.2485C38.8112 68.3125 39.1958 68.4726 39.4842 68.6646C39.7727 68.8567 40.0291 69.2088 40.1573 69.593Z" fill="#082534" stroke="white" stroke-width="0.116263"/>
<path d="M37.1122 65.7197L36.9199 64.9834" stroke="#082534" stroke-width="0.20532" stroke-linecap="round" stroke-linejoin="round"/>
<path d="M38.9394 72.3461L38.7471 71.6099" stroke="#082534" stroke-width="0.20532" stroke-linecap="round" stroke-linejoin="round"/>
</g>
<defs>
<clipPath id="clip0">
<rect width="201.91" height="189.509" fill="white"/>
</clipPath>
</defs>
</svg>
