<svg width="192" height="200" viewBox="0 0 192 200" fill="none" xmlns="http://www.w3.org/2000/svg">
<path opacity="0.2" d="M82.8813 199.472C109.756 199.472 131.542 196.212 131.542 192.191C131.542 188.17 109.756 184.91 82.8813 184.91C56.0068 184.91 34.2207 188.17 34.2207 192.191C34.2207 196.212 56.0068 199.472 82.8813 199.472Z" fill="#7E868E"/>
<path d="M88.0307 63.0029C89.0218 63.0029 89.8252 62.1995 89.8252 61.2085C89.8252 60.2175 89.0218 59.4141 88.0307 59.4141C87.0397 59.4141 86.2363 60.2175 86.2363 61.2085C86.2363 62.1995 87.0397 63.0029 88.0307 63.0029Z" fill="#F2F2F2"/>
<path d="M62.5962 175.292L63.02 179.108L59.2051 178.683V174.021L62.5962 175.292Z" fill="#FFB8B8"/>
<path d="M102.444 175.292L102.02 179.108L105.835 178.683V174.021L102.444 175.292Z" fill="#FFB8B8"/>
<path d="M62.1721 93.0542L60.4765 136.717C60.4765 136.717 54.9657 169.357 56.2374 170.205C57.5091 171.053 56.2374 175.716 56.2374 175.716L63.4438 176.564C63.4438 176.564 63.4438 173.173 65.1395 171.901C66.8351 170.629 82.5197 110.858 82.5197 110.858L98.6281 168.51C98.6281 168.51 98.2042 171.901 99.4759 171.901C100.748 171.901 101.172 176.564 101.172 176.564H108.378V171.901C108.378 171.901 110.498 171.477 109.226 168.086C107.954 164.695 103.291 93.0542 103.291 93.0542L62.1721 93.0542Z" fill="#7E868E"/>
<path d="M60.0525 175.292C60.0525 175.292 57.933 174.02 57.0852 174.868C56.2374 175.716 49.4548 184.194 49.4548 184.194C49.4548 184.194 40.1289 190.129 48.607 191.824C57.0852 193.52 63.4438 185.466 63.8677 184.618C64.2916 183.77 63.4438 176.988 63.0199 177.835C62.596 178.683 61.3243 178.259 60.9003 177.835C60.4764 177.412 60.0525 175.292 60.0525 175.292Z" fill="#214859"/>
<path d="M104.986 175.292C104.986 175.292 107.106 174.02 107.954 174.868C108.802 175.716 115.584 184.194 115.584 184.194C115.584 184.194 124.91 190.129 116.432 191.824C107.954 193.52 101.595 185.466 101.171 184.618C100.747 183.77 101.595 176.988 102.019 177.835C102.443 178.683 103.715 178.259 104.139 177.835C104.562 177.412 104.986 175.292 104.986 175.292Z" fill="#214859"/>
<path d="M87.818 30.3157C92.6174 30.3157 96.5081 26.4251 96.5081 21.6256C96.5081 16.8262 92.6174 12.9355 87.818 12.9355C83.0186 12.9355 79.1279 16.8262 79.1279 21.6256C79.1279 26.4251 83.0186 30.3157 87.818 30.3157Z" fill="#E4B7A8"/>
<path d="M82.096 26.5009L80.8242 39.6421L90.998 41.7617L93.5416 26.0771L82.096 26.5009Z" fill="#E4B7A8"/>
<path d="M92.6929 36.6749C92.6929 36.6749 90.1495 42.1857 80.8235 36.251L63.4434 93.0546C63.4434 93.0546 86.7582 107.043 101.595 96.4458L96.5081 39.2183L92.6929 36.6749Z" fill="#D0CDE1"/>
<path d="M82.5199 30.3157L74.4656 29.0439L73.6178 34.5547C73.6178 34.5547 62.5962 35.8265 61.3245 40.0655L62.5962 71.4347C62.5962 71.4347 58.7811 78.2172 62.1723 82.4563C62.1723 82.4563 56.6615 93.9018 60.9006 96.0213C60.9006 96.0213 70.6504 91.3583 76.5851 92.63C76.5851 92.63 79.9764 91.7822 79.9764 89.2388C79.9764 86.6953 82.5199 30.3157 82.5199 30.3157Z" fill="#00ADD2"/>
<path d="M92.27 31.1636L96.9329 32.4353L97.3569 38.37C97.3569 38.37 108.802 45.5764 109.226 49.8155C109.65 54.0546 100.748 74.4021 100.748 74.4021C100.748 74.4021 104.139 80.3368 102.868 84.152C102.868 84.152 108.378 95.1736 104.987 98.1409C104.987 98.1409 98.6286 99.8365 97.7808 97.2931C96.9329 94.7497 89.3026 65.5001 92.6939 51.5111C92.6939 51.5111 89.3026 33.707 92.27 31.1636Z" fill="#00ADD2"/>
<path d="M97.1446 44.9691H96.9851V40.5982C96.9851 40.2659 96.9196 39.937 96.7925 39.63C96.6654 39.3231 96.479 39.0442 96.2441 38.8093C96.0092 38.5744 95.7303 38.3881 95.4234 38.2609C95.1165 38.1338 94.7875 38.0684 94.4553 38.0684H85.1948C84.8626 38.0684 84.5337 38.1338 84.2267 38.2609C83.9198 38.3881 83.6409 38.5744 83.406 38.8093C83.1711 39.0442 82.9847 39.3231 82.8576 39.63C82.7305 39.937 82.665 40.2659 82.665 40.5982V64.5776C82.665 64.9098 82.7305 65.2387 82.8576 65.5457C82.9847 65.8526 83.1711 66.1315 83.406 66.3664C83.6409 66.6013 83.9198 66.7876 84.2267 66.9148C84.5337 67.0419 84.8626 67.1073 85.1948 67.1073H94.4553C94.7875 67.1073 95.1165 67.0419 95.4234 66.9148C95.7303 66.7876 96.0092 66.6013 96.2441 66.3664C96.479 66.1315 96.6654 65.8526 96.7925 65.5457C96.9196 65.2387 96.9851 64.9098 96.9851 64.5776V48.0804H97.1446V44.9691Z" fill="white"/>
<path d="M101.172 62.109C101.172 62.109 97.7806 51.0874 92.6938 54.4787C87.6069 57.8699 96.085 67.1959 96.085 67.1959L101.172 62.109Z" fill="#E4B7A8"/>
<path d="M77.8564 54.0551C77.8564 54.0551 83.7912 46.8487 86.7585 50.2399C89.7259 53.6312 81.6716 61.2615 81.6716 61.2615L77.8564 54.0551Z" fill="#E4B7A8"/>
<path d="M62.5965 39.6415C62.5965 39.6415 60.4769 39.2175 59.2052 43.0327C57.9335 46.8479 53.2705 61.2607 53.2705 63.8042C53.2705 66.3476 54.9661 76.5214 64.2921 74.8257C73.618 73.1301 84.6396 61.2607 84.6396 61.2607L78.7049 52.3587L65.9877 59.989L62.5965 39.6415Z" fill="#00ADD2"/>
<path opacity="0.1" d="M64.4278 50.6317L66.1994 59.7774L79.3405 52.1473L67.0472 56.8103L64.3369 50.0859L64.4278 50.6317Z" fill="black"/>
<path opacity="0.1" d="M101.808 59.7777L103.503 61.0496L104.351 55.1147L101.808 59.7777Z" fill="black"/>
<path opacity="0.1" d="M62.3838 75.8858C62.3838 75.8858 74.8351 72.4985 80.6908 65.0781C80.6908 65.0781 74.6771 75.038 62.3838 75.8858Z" fill="black"/>
<path opacity="0.1" d="M93.7529 68.2559C93.7529 68.2559 96.3748 81.0876 103.118 81.4542C103.118 81.4542 95.0247 83.9404 93.7529 68.2559Z" fill="black"/>
<path d="M107.53 48.1201C107.53 48.1201 108.802 48.9679 109.649 52.7831C110.497 56.5983 116.008 71.0111 113.888 74.4024C111.769 77.7936 108.378 85.424 101.171 80.3371L93.9648 67.196L101.171 60.4134L104.139 62.533L107.53 48.1201Z" fill="#00ADD2"/>
<path d="M79.476 23.8299C79.476 23.8299 72.1878 12.018 79.9508 11.4037C82.5413 11.2225 85.0709 10.5332 87.3953 9.3752C89.9686 8.06578 93.2076 7.0705 94.9313 9.08618C95.6835 10.0079 96.5605 10.8203 97.5369 11.5C99.051 12.5041 100.803 14.1319 99.8328 15.8781L98.2424 18.7407L96.0159 24.4661C96.5344 21.9966 96.5474 19.9231 95.2207 18.8998C95.2207 18.8998 87.8186 22.0498 84.0881 16.3552C79.9122 13.222 78.5836 23.0839 79.476 23.8299Z" fill="#2F2E41"/>
<path d="M90.3443 48.1252C91.3408 48.1252 92.1486 47.3174 92.1486 46.3209C92.1486 45.3244 91.3408 44.5166 90.3443 44.5166C89.3479 44.5166 88.54 45.3244 88.54 46.3209C88.54 47.3174 89.3479 48.1252 90.3443 48.1252Z" fill="#FF6584"/>
<rect x="151.897" y="21.6879" width="17.2491" height="17.2491" rx="0.685634" fill="#F2F2F2" stroke="#7E868E" stroke-width="0.072172"/>
<rect x="155.47" y="32.4775" width="10.1041" height="2.88688" rx="1.44344" fill="#00ADD2"/>
<rect x="174.27" y="21.6879" width="17.2491" height="17.2491" rx="0.685634" fill="#F2F2F2" stroke="#7E868E" stroke-width="0.072172"/>
<rect x="177.843" y="32.4775" width="10.1041" height="2.88688" rx="1.44344" fill="#00ADD2"/>
<path d="M115.307 51.1568L137.783 28.5036H148.394V28.1475H137.634L137.582 28.2004L115.054 50.9064L115.307 51.1568Z" fill="#7E868E"/>
<path d="M56.3404 30.6109L33.8647 7.95774H23.2539V7.60156H34.0134L34.0657 7.65446L56.5937 30.3605L56.3404 30.6109Z" fill="#7E868E"/>
<path d="M0.299805 0.751955C0.299805 1.05599 0.481111 1.31656 0.74075 1.43511V17.9033V18.5257H1.36323H18.3511C18.4697 18.7854 18.73 18.9665 19.0341 18.9665C19.4494 18.9665 19.7862 18.6299 19.7862 18.2145C19.7862 17.7991 19.4494 17.4625 19.0341 17.4625C18.73 17.4625 18.4697 17.6439 18.3511 17.9033H1.36323V1.43511C1.62287 1.31656 1.80418 1.05599 1.80418 0.751955C1.80418 0.336578 1.46737 0 1.05199 0C0.636615 0 0.299805 0.336578 0.299805 0.751955Z" fill="#49535C"/>
<path d="M8.43628 13.0149C8.50415 13.1286 8.63223 13.1934 8.76333 13.1837C8.89559 13.1732 9.01042 13.0884 9.05946 12.9652L11.5761 6.6476L13.9917 10.6907C14.0596 10.8044 14.1876 10.8704 14.3187 10.8595C14.451 10.849 14.5658 10.7642 14.6149 10.641L17.0511 4.52469C17.0571 4.52469 17.0625 4.52655 17.0685 4.52655C17.6141 4.52655 18.0564 4.08444 18.0564 3.53867C18.0564 2.99289 17.6141 2.55078 17.0685 2.55078C16.523 2.55078 16.0807 2.99289 16.0807 3.53867C16.0807 3.82736 16.2066 4.08468 16.4037 4.26505L14.2281 9.72724L11.8125 5.68389C11.7444 5.56999 11.6161 5.50374 11.4855 5.51513C11.3532 5.52559 11.2384 5.61044 11.1893 5.73363L8.67268 12.0512L6.25712 8.00832C6.18902 7.89443 6.06071 7.82841 5.93007 7.83957C5.79781 7.85003 5.68299 7.93487 5.63394 8.05807L3.1977 14.1744C3.19166 14.1744 3.18631 14.1725 3.18027 14.1725C2.63472 14.1725 2.19238 14.6146 2.19238 15.1604C2.19238 15.7062 2.63472 16.1483 3.18027 16.1483C3.72581 16.1483 4.16815 15.7062 4.16815 15.1604C4.16815 14.8717 4.04217 14.6144 3.84506 14.434L6.02073 8.9718L8.43628 13.0149Z" fill="#00ADD2"/>
</svg>
