<svg width="260" height="159" viewBox="0 0 260 159" fill="none" xmlns="http://www.w3.org/2000/svg">
<path opacity="0.5" d="M128.298 158.325C158.735 158.325 183.41 155.229 183.41 151.409C183.41 147.59 158.735 144.494 128.298 144.494C97.86 144.494 73.1855 147.59 73.1855 151.409C73.1855 155.229 97.86 158.325 128.298 158.325Z" fill="#7E868E"/>
<path opacity="0.5" d="M221.526 90.1812L200.22 100.265L219.076 86.165C216.012 81.3815 212.569 76.851 208.781 72.6171L116.382 95.5834L199.844 63.7453C196.03 60.3802 191.98 57.293 187.724 54.5073L46.9297 77.1856C31.9809 95.8791 23.8318 119.1 23.8203 143.035H235.754C235.746 124.472 230.837 106.24 221.526 90.1812Z" fill="#D1D5D7"/>
<path opacity="0.5" d="M176.202 47.9608C161.746 40.9105 145.871 37.2571 129.788 37.2799C97.0546 37.2799 67.7895 52.1224 48.3516 75.4431C81.6372 68.1499 139.59 55.525 176.202 47.9608Z" fill="#D1D5D7"/>
<path d="M199.97 54.9761C199.97 56.5914 198.66 57.9009 197.045 57.9009C195.43 57.9009 194.12 56.5914 194.12 54.9761C194.12 53.3608 195.43 52.0513 197.045 52.0513C198.66 52.0513 199.97 53.3608 199.97 54.9761Z" stroke="#FF6584" stroke-width="0.5"/>
<path opacity="0.4" d="M191.169 58.7194C192.4 58.7194 193.397 57.7223 193.397 56.4923C193.397 55.2623 192.4 54.2651 191.169 54.2651C189.939 54.2651 188.942 55.2623 188.942 56.4923C188.942 57.7223 189.939 58.7194 191.169 58.7194Z" fill="#00ADD2"/>
<path opacity="0.4" d="M46.7468 70.0381C50.4191 70.0381 53.396 67.0612 53.396 63.3889C53.396 59.7167 50.4191 56.7397 46.7468 56.7397C43.0746 56.7397 40.0977 59.7167 40.0977 63.3889C40.0977 67.0612 43.0746 70.0381 46.7468 70.0381Z" fill="#00ADD2"/>
<path d="M38.856 66.5647C38.856 69.0027 36.8797 70.9791 34.4417 70.9791C32.0037 70.9791 30.0273 69.0027 30.0273 66.5647C30.0273 64.1268 32.0037 62.1504 34.4417 62.1504C36.8797 62.1504 38.856 64.1268 38.856 66.5647Z" stroke="#FF6584" stroke-width="0.5"/>
<path d="M260 142.798H0V143.363H260V142.798Z" fill="#2F2E41"/>
<path d="M213.932 142.822L197.028 117.713C197.028 117.713 222.628 126.65 219.723 142.822H213.932Z" fill="#3F3D56"/>
<path d="M214.596 142.822L231.5 117.713C231.5 117.713 205.9 126.65 208.805 142.822H214.596Z" fill="#00ADD2"/>
<path opacity="0.5" d="M65.7382 28.2519C65.7382 26.8694 63.767 25.7487 61.3354 25.7487C61.2872 25.7487 61.2396 25.7499 61.1919 25.7508C60.4583 23.5022 56.9908 21.7993 52.8232 21.7993C49.2773 21.7993 46.2383 23.0321 44.9585 24.7848C44.013 24.5345 43.0387 24.4098 42.0606 24.4137C38.3321 24.4137 35.3096 26.1321 35.3096 28.2519C35.3096 30.1774 37.8038 31.7715 41.0556 32.0475C43.4185 32.4795 47.1095 32.7576 51.2577 32.7576C58.3003 32.7576 63.4534 31.4141 63.5826 30.4043C64.8731 29.9679 65.7382 29.1675 65.7382 28.2519Z" fill="#D1D5D7"/>
<path opacity="0.5" d="M172.132 29.3158C172.132 27.9334 170.161 26.8127 167.729 26.8127C167.681 26.8127 167.633 26.8139 167.585 26.8147C166.852 24.5661 163.384 22.8633 159.217 22.8633C155.671 22.8633 152.632 24.096 151.352 25.8487C150.407 25.5985 149.432 25.4737 148.454 25.4777C144.726 25.4777 141.703 27.1961 141.703 29.3158C141.703 31.2414 144.197 32.8355 147.449 33.1114C149.812 33.5435 153.503 33.8215 157.651 33.8215C164.694 33.8215 169.847 32.4781 169.976 31.4683C171.267 31.0319 172.132 30.2315 172.132 29.3158Z" fill="#D1D5D7"/>
<path opacity="0.5" d="M231.5 11.3258C231.5 8.89929 228.04 6.93219 223.771 6.93219C223.687 6.93219 223.603 6.93427 223.52 6.9358C222.232 2.98896 216.146 0 208.83 0C202.607 0 197.272 2.16379 195.026 5.24018C193.367 4.80097 191.656 4.582 189.94 4.58891C183.395 4.58891 178.09 7.60513 178.09 11.3258C178.09 14.7056 182.468 17.5036 188.176 17.988C192.323 18.7464 198.802 19.2344 206.083 19.2344C218.444 19.2344 227.489 16.8763 227.716 15.1039C229.981 14.3379 231.5 12.933 231.5 11.3258Z" fill="#D1D5D7"/>
<path d="M142.803 61.6887C138.402 54.2516 129.694 53.905 129.694 53.905C129.694 53.905 121.209 52.8199 115.765 64.1466C110.692 74.7041 103.689 84.8975 114.638 87.3689L116.616 81.2137L117.84 87.8271C119.399 87.9392 120.963 87.966 122.525 87.9072C134.25 87.5286 145.416 88.0179 145.056 83.8105C144.578 78.2174 147.038 68.8446 142.803 61.6887Z" fill="#2F2E41"/>
<path d="M114.013 126.819C113.884 127.637 113.697 128.444 113.452 129.236C113.177 130.01 112.751 130.726 112.5 131.509C111.697 134.003 112.81 136.784 114.587 138.709C116.128 140.372 118.118 141.553 120.316 142.111C121.919 142.514 123.586 142.572 125.238 142.628C129.814 142.783 134.507 142.922 138.843 141.451C140.213 140.975 141.536 140.374 142.795 139.656C143.193 139.466 143.543 139.19 143.821 138.848C144.151 138.378 144.194 137.767 144.191 137.192C144.181 135.252 143.788 133.322 143.881 131.385C143.933 130.312 144.134 129.239 144.035 128.169C143.898 126.954 143.389 125.811 142.578 124.897C141.766 123.982 140.692 123.341 139.502 123.06C138.272 122.796 136.996 122.94 135.744 123.06C132.494 123.372 129.23 123.518 125.964 123.497C122.628 123.476 119.313 122.967 115.993 122.914C115.011 122.898 115.031 123.201 114.719 124.151C114.431 125.025 114.195 125.916 114.013 126.819Z" fill="#2F2E41"/>
<path d="M123.481 78.9233C123.321 79.7628 123.148 80.6329 122.643 81.3228C122.063 82.1165 121.116 82.57 120.492 83.3296C119.552 84.473 119.498 86.0819 119.494 87.5619C119.491 88.9254 119.518 90.3796 120.279 91.5114C120.772 92.2459 121.523 92.7609 122.257 93.2554C125.108 95.177 128.19 97.1331 131.628 97.1965C133.052 97.2227 134.579 96.8549 135.517 95.7819C135.921 95.2779 136.239 94.7102 136.458 94.102C137.337 91.9351 137.87 89.6435 138.037 87.311C138.116 86.2137 138.108 85.0843 137.737 84.0487C137.319 82.8843 136.475 81.9262 135.916 80.8222C135.257 79.5094 135.015 78.0258 135.225 76.5716C135.253 76.4692 135.244 76.3604 135.201 76.2636C135.155 76.2118 135.098 76.1713 135.033 76.1453C134.969 76.1193 134.9 76.1085 134.831 76.1137L128.014 75.623C127.379 75.5915 126.747 75.5191 126.122 75.4065C125.754 75.3318 124.783 74.8099 124.433 74.9486C123.784 75.2055 123.614 78.2272 123.481 78.9233Z" fill="#FFB8B8"/>
<path opacity="0.1" d="M123.481 78.9233C123.321 79.7628 123.148 80.6329 122.643 81.3228C122.063 82.1165 121.116 82.57 120.492 83.3296C119.552 84.473 119.498 86.0819 119.494 87.5619C119.491 88.9254 119.518 90.3796 120.279 91.5114C120.772 92.2459 121.523 92.7609 122.257 93.2554C125.108 95.177 128.19 97.1331 131.628 97.1965C133.052 97.2227 134.579 96.8549 135.517 95.7819C135.921 95.2779 136.239 94.7102 136.458 94.102C137.337 91.9351 137.87 89.6435 138.037 87.311C138.116 86.2137 138.108 85.0843 137.737 84.0487C137.319 82.8843 136.475 81.9262 135.916 80.8222C135.257 79.5094 135.015 78.0258 135.225 76.5716C135.253 76.4692 135.244 76.3604 135.201 76.2636C135.155 76.2118 135.098 76.1713 135.033 76.1453C134.969 76.1193 134.9 76.1085 134.831 76.1137L128.014 75.623C127.379 75.5915 126.747 75.5191 126.122 75.4065C125.754 75.3318 124.783 74.8099 124.433 74.9486C123.784 75.2055 123.614 78.2272 123.481 78.9233Z" fill="black"/>
<path d="M130 79.837C135.523 79.837 140.001 75.3594 140.001 69.836C140.001 64.3126 135.523 59.835 130 59.835C124.477 59.835 119.999 64.3126 119.999 69.836C119.999 75.3594 124.477 79.837 130 79.837Z" fill="#FFB8B8"/>
<path d="M124.883 92.2359C125.405 92.7808 125.957 93.3202 126.64 93.6396C127.335 93.927 128.082 94.0692 128.834 94.0574C130.637 94.1082 132.592 93.7778 133.846 92.4818C135.462 90.8111 135.409 88.1164 136.676 86.1672C136.778 85.9905 136.918 85.8382 137.084 85.7207C137.297 85.605 137.537 85.5497 137.779 85.561C139.379 85.546 140.773 86.584 142.032 87.5732C142.595 88.0163 143.173 88.4754 143.528 89.0979C143.777 89.5833 143.947 90.105 144.033 90.6437C144.657 93.6915 144.86 96.8078 145.06 99.9124C145.171 101.627 145.282 103.344 145.274 105.062C145.247 110.723 143.931 116.29 142.622 121.798C142.454 122.508 142.223 123.301 141.578 123.641C141.29 123.77 140.981 123.846 140.666 123.863C136.918 124.304 133.162 124.744 129.389 124.802C127.917 124.825 126.445 124.789 124.973 124.696C124.72 124.692 124.469 124.648 124.23 124.566C123.905 124.41 123.625 124.173 123.419 123.877C121.378 121.305 121.257 117.75 121.27 114.466C121.302 106.439 121.589 98.4178 122.131 90.4032C122.175 89.7416 122.185 88.9382 121.709 88.4178C122.567 89.7918 123.761 91.0625 124.883 92.2359Z" fill="#D0CDE1"/>
<path d="M122.765 80.6882C122.428 81.2997 119.937 82.818 119.456 83.3248C116.77 86.1562 111.868 86.0499 109.411 89.0826C108.547 90.1495 108.097 91.4902 107.767 92.823C107.3 94.7081 107.051 96.764 107.833 98.5414C108.586 100.252 110.171 101.434 111.247 102.962C112.429 104.639 112.96 106.676 113.469 108.664C113.845 110.131 114.224 111.635 114.078 113.143C113.911 114.858 113.082 116.428 112.592 118.079C112.102 119.73 112.018 121.697 113.15 122.995C113.982 123.949 115.287 124.326 116.535 124.539C118.133 124.779 119.744 124.919 121.359 124.959C122.785 125.022 124.357 125.034 125.453 124.12C126.318 123.399 126.694 122.228 126.743 121.103C126.792 119.978 126.558 118.862 126.411 117.746C126.259 116.588 126.2 115.42 126.152 114.254C125.932 109.019 125.902 103.782 126.062 98.5407C126.095 97.4501 126.135 96.3461 125.903 95.2801C125.597 93.8781 124.839 92.6252 124.207 91.337C122.952 88.7801 122.359 86.2963 122.553 83.4545C122.744 80.6494 123.967 78.5124 122.765 80.6882Z" fill="#00ADD2"/>
<path d="M136.809 80.9011C137.324 81.4299 139.072 81.6042 139.726 81.9448C140.342 82.2292 140.984 82.4516 141.644 82.6087C144.031 83.2974 146.302 84.3396 148.381 85.7007C148.813 85.9534 149.195 86.2832 149.507 86.6738C149.874 87.1832 150.006 87.8187 150.131 88.4336C150.451 90.021 150.773 91.6276 150.701 93.2455C150.625 94.9628 150.107 96.626 149.594 98.2666L147.677 104.397C146.245 108.973 144.805 113.594 144.402 118.371C144.18 121.019 144.279 123.684 144.697 126.308C144.739 126.572 144.775 126.874 144.601 127.077C144.474 127.201 144.308 127.278 144.131 127.293C143.206 127.437 142.31 126.965 141.471 126.548C138.909 125.273 136.174 124.378 133.353 123.891C134.455 122.298 135.305 120.545 135.874 118.693C136.197 117.517 136.452 116.323 136.636 115.118L137.528 109.959C137.891 108.073 138.147 106.168 138.293 104.254C138.361 103.535 138.319 102.811 138.169 102.105C137.964 101.433 137.691 100.783 137.354 100.167C135.884 97.1086 135.195 93.6191 135.773 90.2758C136.026 88.8127 136.518 87.3477 136.313 85.8771C136.116 84.4632 136.321 83.3643 135.958 81.9651C134.468 76.2198 135.841 79.9063 136.809 80.9011Z" fill="#00ADD2"/>
<path d="M109.385 93.9177C108.715 95.3084 107.595 96.4932 107.213 97.9891C107.065 98.6883 107.001 99.4028 107.024 100.117C107.015 101.194 107.009 102.292 107.34 103.317C107.553 103.977 107.899 104.585 108.148 105.232C108.496 106.135 108.651 107.101 108.603 108.068C108.536 109.408 108.081 110.708 108.045 112.049C107.989 114.158 108.964 116.14 109.916 118.023C110.156 117.429 110.522 116.896 110.989 116.459C111.456 116.022 112.014 115.693 112.621 115.494C113.229 115.294 113.874 115.231 114.509 115.307C115.144 115.382 115.755 115.596 116.299 115.933C116.55 115.701 116.577 115.32 116.586 114.979C116.657 112.532 116.725 110.086 116.79 107.64C116.893 103.856 116.991 100.022 116.121 96.3386C115.728 94.6754 115.116 93.0187 113.995 91.7288C113.405 91.0496 111.402 89.2605 110.433 90.0214C109.997 90.3636 110.099 91.295 110.03 91.7667C109.926 92.5123 109.708 93.2376 109.385 93.9177Z" fill="#00ADD2"/>
<path d="M150.897 89.9098C151.214 90.8968 151.233 91.9515 151.239 92.9882C151.252 95.1029 151.224 97.2174 151.155 99.3316C151.12 100.414 151.071 101.511 150.743 102.543C150.527 103.224 150.193 103.862 149.969 104.54C149.299 106.573 149.665 108.778 149.723 110.917C149.763 111.61 149.704 112.304 149.547 112.98C149.194 114.306 148.244 115.378 147.581 116.58C146.951 117.721 146.571 119.001 145.819 120.066C145.067 121.13 143.765 121.974 142.503 121.647C141.546 121.4 140.867 120.553 140.397 119.684C139.372 117.774 139.021 115.574 139.402 113.439C139.873 110.843 141.399 108.539 141.949 105.958C142.704 102.413 141.556 98.7551 141.59 95.131C141.575 94.5629 141.652 93.996 141.819 93.4527C142.107 92.6249 142.727 91.9638 143.299 91.2998C144.015 90.4701 144.679 89.598 145.289 88.688C145.699 88.0768 146.256 86.5047 146.983 86.3739C148.605 86.0821 150.494 88.6564 150.897 89.9098Z" fill="#00ADD2"/>
<path d="M100.967 125.242C100.07 125.017 99.1458 124.918 98.2213 124.95C97.25 125.004 96.3012 125.264 95.4381 125.713C94.575 126.161 93.8173 126.789 93.2154 127.553C92.6135 128.317 92.1812 129.201 91.9472 130.145C91.7133 131.089 91.683 132.073 91.8585 133.029C92.0825 134.066 92.4487 135.067 92.9466 136.003C93.6748 137.481 94.5483 138.955 95.8964 139.902C96.685 140.456 97.5978 140.802 98.4997 141.141L105.6 143.816C106.645 144.21 107.689 144.603 108.744 144.968C114.044 146.8 119.569 147.898 125.167 148.233C126.872 148.334 128.602 148.363 130.266 147.975C130.66 147.882 131.081 147.745 131.31 147.41C131.445 147.175 131.525 146.911 131.543 146.64L131.98 143.581C132.042 143.15 132.101 142.697 131.943 142.292C131.743 141.778 131.241 141.454 130.763 141.179C126.095 138.498 120.644 137.019 116.715 133.339C115.79 132.473 115.016 131.1 113.892 130.512C112.618 129.844 111.117 129.463 109.8 128.849C106.92 127.504 104.088 125.96 100.967 125.242Z" fill="#2F2E41"/>
<path opacity="0.1" d="M108.056 129.366C110.566 130.152 121.162 135.601 122.978 137.503C122.735 137.591 114.475 132.962 114.227 132.887C111.974 132.211 109.709 131.531 107.569 130.541C107.139 130.342 104.773 129.406 104.88 128.863C105.001 128.251 107.611 129.226 108.056 129.366Z" fill="black"/>
<path d="M139.366 149.819C139.509 149.829 139.65 149.788 139.764 149.702C139.814 149.638 139.851 149.564 139.872 149.485C139.894 149.407 139.899 149.325 139.889 149.244C139.885 147.855 139.881 146.466 139.877 145.077C138.679 144.506 137.338 144.323 136.023 144.147L129.884 143.327C130.025 143.346 128.924 145.971 129.093 146.321C129.39 146.939 131.664 147.486 132.306 147.778C134.536 148.792 136.854 149.906 139.366 149.819Z" fill="#FFB8B8"/>
<path d="M120.106 145.063C118.947 145.247 117.654 145.411 116.903 146.313C115.951 147.457 116.356 149.163 116.81 150.58C116.878 150.867 117.013 151.133 117.205 151.356C117.515 151.662 117.99 151.707 118.425 151.734C119.482 151.801 120.606 151.854 121.53 151.335C121.948 151.059 122.351 150.76 122.736 150.439C123.417 149.985 124.166 149.643 124.954 149.425C126.403 148.969 127.895 148.661 129.406 148.507C130.002 148.48 130.591 148.376 131.16 148.198C131.718 147.988 132.234 147.572 132.396 146.999C132.609 146.241 132.169 145.469 131.747 144.805C131.221 143.978 130.664 143.107 129.88 142.498C128.736 141.609 128.171 142.291 127.018 142.86C124.838 143.936 122.508 144.679 120.106 145.063Z" fill="#FFB8B8"/>
<path d="M117.077 146.107L109.718 143.932C108.823 143.667 107.912 143.4 106.979 143.401C106.046 143.402 105.069 143.708 104.464 144.418C103.893 145.088 103.73 146.003 103.588 146.872L103.283 148.729C103.129 149.673 102.974 150.635 103.113 151.581C103.252 152.528 103.735 153.473 104.575 153.931C105.593 154.487 106.841 154.216 107.978 153.983C110.274 153.514 112.609 153.264 114.952 153.235C115.833 153.225 116.757 153.236 117.535 152.823C118.461 152.333 119.014 151.296 119.109 150.253C119.254 148.667 118.725 146.594 117.077 146.107Z" fill="#2F2E41"/>
<path d="M142.259 144.211C143.213 144.044 144.055 143.502 144.969 143.182C146.256 142.731 147.65 142.731 149.014 142.736C149.514 142.738 150.047 142.749 150.464 143.027C151.064 143.426 151.218 144.227 151.32 144.941L151.936 149.25C152.052 150.06 152.167 150.892 151.987 151.691C151.806 152.489 151.262 153.259 150.469 153.465C149.507 153.715 148.563 153.1 147.655 152.697C145.384 151.687 142.744 151.945 140.376 151.191C139.936 151.051 139.466 150.837 139.286 150.412C139.205 150.172 139.176 149.919 139.202 149.667C139.242 148.282 138.95 146.391 139.367 145.067C139.742 143.877 141.194 144.211 142.259 144.211Z" fill="#2F2E41"/>
<path d="M157.833 123.508C159.304 123.139 160.828 123.035 162.335 123.2C163.539 123.333 164.779 123.668 165.658 124.501C166.727 125.515 167.071 127.083 167.1 128.556C167.147 131.491 166.173 134.351 164.346 136.648C163.899 137.229 163.369 137.74 162.771 138.164C162.127 138.567 161.44 138.898 160.723 139.151L144.822 145.423C140.638 147.073 136.44 148.727 132.077 149.815C131.958 149.873 131.828 149.906 131.696 149.913C131.563 149.919 131.431 149.9 131.307 149.854C131.182 149.809 131.068 149.74 130.971 149.65C130.873 149.56 130.795 149.451 130.74 149.331C129.347 147.34 128.178 145.202 127.255 142.955C127.212 142.902 127.181 142.839 127.167 142.771C127.153 142.704 127.156 142.634 127.174 142.567C127.193 142.501 127.227 142.44 127.274 142.39C127.322 142.339 127.38 142.301 127.445 142.278L138.692 135.816C139.498 135.353 140.312 134.883 140.981 134.239C141.468 133.768 141.866 133.213 142.157 132.602C142.39 132.115 142.412 130.966 142.709 130.606C143.001 130.254 143.998 130.226 144.459 130.087C145.109 129.888 145.745 129.648 146.364 129.367C148.879 128.242 151.12 126.606 153.532 125.289C154.884 124.515 156.33 123.917 157.833 123.508Z" fill="#2F2E41"/>
<path opacity="0.1" d="M151.457 128.334C149.525 129.785 147.023 131.119 145.108 132.608C144.454 133.117 133.558 139.243 133.404 140.056C135.191 140.357 146.572 132.395 148.201 131.601C149.829 130.806 151.272 129.686 152.703 128.574C153.067 128.29 154.612 127.438 153.566 127.121C152.976 126.943 151.892 128.044 151.457 128.334Z" fill="black"/>
<path d="M140.857 60.9715L132.254 56.4653L120.374 58.3087L117.916 69.1649L124.035 68.9296L125.744 64.9411V68.8638L128.567 68.7551L130.206 62.4055L131.23 69.1649L141.267 68.96L140.857 60.9715Z" fill="#2F2E41"/>
<path d="M138.937 83.2417H120.425V105.584H138.937V83.2417Z" fill="#3F3D56"/>
<path d="M111.636 122.102C112.061 122.736 112.559 123.357 113.241 123.699C113.677 123.898 114.152 123.995 114.63 123.982C115.109 123.969 115.578 123.847 116.002 123.625C116.849 123.171 117.542 122.476 117.994 121.628C118.929 119.977 119.123 118.001 119.006 116.108C118.889 114.214 118.485 112.349 118.306 110.46C118.176 109.087 118.165 107.706 118.155 106.326C118.123 106.036 118.183 105.744 118.329 105.49C118.536 105.208 118.915 105.13 119.251 105.03C121.138 104.469 122.39 102.701 123.288 100.949C123.888 99.7791 124.409 98.5005 124.294 97.1911C124.178 95.8818 123.237 94.5627 121.929 94.4292C120.851 94.3191 119.856 95.0038 119.078 95.7585C117.117 97.6742 115.856 100.194 115.499 102.912C115.328 104.244 115.377 105.611 115.015 106.904C114.242 109.663 111.822 111.355 110.617 113.838C109.289 116.575 110.022 119.681 111.636 122.102Z" fill="#FFB8B8"/>
<path d="M147.234 111.559C146.959 112.199 146.558 112.777 146.056 113.26C145.553 113.743 144.959 114.12 144.309 114.369C143.501 114.694 142.609 114.748 141.767 114.525C141.349 114.409 140.964 114.198 140.641 113.909C140.318 113.62 140.066 113.261 139.904 112.859C139.775 112.454 139.705 112.032 139.694 111.607C139.573 109.747 139.62 107.829 140.296 106.091C140.557 105.42 140.908 104.785 141.114 104.095C141.316 103.299 141.42 102.482 141.422 101.66L141.644 96.5827C141.681 96.2141 141.656 95.8419 141.569 95.4817C141.347 94.747 140.661 94.2696 140.03 93.8314C138.509 92.7733 137.005 91.5385 136.268 89.8382C136.015 89.3262 135.924 88.7491 136.008 88.1841C136.216 87.1758 137.233 86.5231 138.239 86.3032C138.897 86.1593 139.578 86.1501 140.239 86.2762C140.901 86.4022 141.53 86.6609 142.089 87.0367C142.648 87.4125 143.126 87.8975 143.492 88.4626C143.859 89.0277 144.107 89.6612 144.222 90.3249C144.322 90.8979 144.32 91.4832 144.379 92.0619C144.502 93.2894 144.892 94.4726 145.136 95.682C145.736 98.6609 145.425 101.74 146.019 104.719C146.515 107.209 148.388 108.834 147.234 111.559Z" fill="#FFB8B8"/>
<path d="M32.6775 142.614L32.252 142.605C32.4166 137.874 32.9214 133.16 33.7627 128.5C35.6029 118.525 38.663 111.973 42.8579 109.028L43.1023 109.376C33.303 116.256 32.6825 142.351 32.6775 142.614Z" fill="#2F2E41"/>
<path d="M37.9969 142.512L37.5713 142.504C37.5804 142.032 37.8464 130.925 42.2192 127.855L42.4635 128.203C38.2672 131.149 37.9989 142.399 37.9969 142.512Z" fill="#2F2E41"/>
<path d="M45.5234 109.415C46.6986 109.415 47.6513 108.462 47.6513 107.287C47.6513 106.112 46.6986 105.159 45.5234 105.159C44.3482 105.159 43.3955 106.112 43.3955 107.287C43.3955 108.462 44.3482 109.415 45.5234 109.415Z" fill="#00ADD2"/>
<path d="M44.4697 127.715C45.6449 127.715 46.5976 126.762 46.5976 125.587C46.5976 124.412 45.6449 123.459 44.4697 123.459C43.2945 123.459 42.3418 124.412 42.3418 125.587C42.3418 126.762 43.2945 127.715 44.4697 127.715Z" fill="#FF6584"/>
<path d="M37.005 110.69C37.4049 113.245 36.3626 115.529 36.3626 115.529C36.3626 115.529 34.6719 113.673 34.272 111.118C33.8721 108.564 34.9144 106.279 34.9144 106.279C34.9144 106.279 36.6051 108.136 37.005 110.69Z" fill="#2F2E41"/>
<path d="M43.9608 116.894C41.5153 117.733 39.084 117.104 39.084 117.104C39.084 117.104 40.6177 115.116 43.0633 114.277C45.5089 113.438 47.9401 114.067 47.9401 114.067C47.9401 114.067 46.4064 116.055 43.9608 116.894Z" fill="#2F2E41"/>
<path d="M44.0394 133.1C42.9325 133.447 41.7538 133.498 40.6211 133.247C41.3403 132.332 42.3089 131.643 43.4103 131.266C44.5116 130.888 45.6987 130.837 46.8285 131.118C46.0884 132.011 45.1266 132.695 44.0394 133.1Z" fill="#2F2E41"/>
</svg>
